<svg 
version="1.1" viewBox="0 0 250 250" id="emoticon-front-view" inkscape:version="0.48.4 r9939" sodipodi:docname="face_000.svg" width="100%" height="100%" xmlns:inkscape="http://www.inkscape.org/namespaces/inkscape" xmlns:sodipodi="http://sodipodi.sourceforge.net/DTD/sodipodi-0.dtd" xmlns:xlink="http://www.w3.org/1999/xlink" xmlns="http://www.w3.org/2000/svg" xmlns:svg="http://www.w3.org/2000/svg" xmlns:rdf="http://www.w3.org/1999/02/22-rdf-syntax-ns#" xmlns:cc="http://creativecommons.org/ns#" xmlns:dc="http://purl.org/dc/elements/1.1/">
  <metadata id="metadata3099">
    <rdf:RDF>
      <cc:Work rdf:about="">
        <dc:format/>
        <dc:type rdf:resource="http://purl.org/dc/dcmitype/StillImage"/>
        <dc:title/>
      </cc:Work>
    </rdf:RDF>
  </metadata>
  <sodipodi:namedview 
  inkscape:snap-bbox="false" pagecolor="#ffffff" bordercolor="#666666" borderopacity="1" objecttolerance="10" gridtolerance="10" guidetolerance="10" inkscape:pageopacity="0" inkscape:pageshadow="2" inkscape:window-width="1855" inkscape:window-height="1056" id="namedview3097" showgrid="false" inkscape:zoom="3.716" inkscape:cx="77.637244" inkscape:cy="125" inkscape:window-x="1985" inkscape:window-y="24" inkscape:window-maximized="1" inkscape:current-layer="emoticon-front-view" showguides="true" inkscape:guide-bbox="true" inkscape:snap-nodes="false" inkscape:snap-global="false">
</sodipodi:namedview>
  <defs id="defs4">
    <linearGradient id="linearGradient5745">
      <stop style="stop-color:#f4f015;stop-opacity:1" id="stop5747" offset="0"/>
      <stop style="stop-color:#f68614;stop-opacity:1" id="stop5749" offset="1"/>
    </linearGradient>
    <linearGradient id="linearGradient2823">
      <stop style="stop-color:#000000;stop-opacity:1" id="stop2825" offset="0"/>
      <stop style="stop-color:#780023;stop-opacity:1" id="stop2827" offset="1"/>
    </linearGradient>
    <clipPath id="clipPath2967">
      <use 
      transform="translate(-48.860,-147.030)" id="use2969" x="0" y="0" width="1" height="1" xlink:href="#path3622">
</use>
    </clipPath>
    <clipPath id="clipPath4022">
      <use 
      transform="matrix(-1,0,0,1,907.590,-127.940)" id="use5959" x="0" y="0" width="250" height="250" xlink:href="#path3622">
</use>
    </clipPath>
    <radialGradient 
    cx="-15.37231" cy="2.7052789" r="1" fx="-15.37231" fy="2.7052789" id="radialGradient5694" xlink:href="#linearGradient5745" gradientUnits="userSpaceOnUse" gradientTransform="matrix(98.09029,121.52782,-104.45905,83.940949,1881.611,1722.6769)" spreadMethod="pad">
</radialGradient>
    <linearGradient 
    x1="107.14286" y1="488.07648" x2="138.57143" y2="606.46576" id="irisGradient" xlink:href="#linearGradient2823" gradientUnits="userSpaceOnUse" gradientTransform="translate(37.463072,-25.351165)">
</linearGradient>
    <clipPath id="clipPath-mouth" clipPathUnits="userSpaceOnUse">
      <use height="250" width="250" id="use-mouth-outline" xlink:href="#mouth-outline" y="0" x="0"/>
    </clipPath>
  </defs>
  <g id="head">
    <path 
    style="fill:#e9c6af;stroke:#000000;stroke-width:1;stroke-opacity:1" d="M 128.480,230.660 C 176.270,230.750 219.010,200.570 219.410,132.640 219.790,64.720 176.760,31.810 126.680,31.520 76.600,31.240 37.380,66.280 37.090,132.650 36.800,199.010 80.690,230.570 128.480,230.660 Z" id="path164" inkscape:connector-curvature="0" sodipodi:nodetypes="zzzzz">
</path>
  </g>
  <g 
  transform="matrix(0.160,0,0,0.160,63.940,17.760)" style="stroke-width:4.360;stroke-miterlimit:4;stroke-dasharray:none" id="left-eye">
    <path 
    d="M 186.330,592.100 C 216.130,599.230 294.110,681.210 311.690,714.330 217.840,649.230 194.130,645.030 30.980,683.910 2.750,655.640 63.670,642.030 70.190,633.430 104.380,608.000 126.360,604.860 186.330,592.100 Z" style="fill:#ffffff;stroke:#000000;stroke-width:6.140;stroke-miterlimit:4;stroke-opacity:1;stroke-dasharray:none" id="path3622" inkscape:connector-curvature="0" sodipodi:nodetypes="ccccc">
</path>
    <g 
    transform="translate(48.860,147.030)" style="stroke-width:4.360;stroke-miterlimit:4;stroke-dasharray:none" clip-path="url(#clipPath2967)" id="lens">
      <g id="g4403">
        <path 
        style="fill:#9d4922;fill-opacity:1;stroke:#000000;stroke-width:6.140;stroke-miterlimit:4;stroke-opacity:1;stroke-dasharray:none" d="M 205.380,519.390 C 205.380,534.350 199.530,549.210 189.480,559.790 179.430,570.370 165.310,576.530 151.090,576.530 136.880,576.530 122.760,570.370 112.710,559.790 102.660,549.210 96.800,534.350 96.800,519.390 96.800,504.430 102.660,489.560 112.710,478.980 122.760,468.400 136.880,462.240 151.090,462.240 165.310,462.240 179.430,468.400 189.480,478.980 199.530,489.560 205.380,504.430 205.380,519.390 Z" id="iris" inkscape:connector-curvature="0">
</path>
        <path 
        d="M 168.810,522.490 C 168.810,527.160 166.890,531.810 163.580,535.120 160.270,538.430 155.630,540.350 150.950,540.350 146.270,540.350 141.630,538.430 138.320,535.120 135.020,531.810 133.090,527.160 133.090,522.490 133.090,517.810 135.020,513.160 138.320,509.850 141.630,506.550 146.270,504.620 150.950,504.620 155.630,504.620 160.270,506.550 163.580,509.850 166.890,513.160 168.810,517.810 168.810,522.490 Z" style="fill:#000000;fill-opacity:1;stroke:#000000;stroke-width:6.140;stroke-miterlimit:4;stroke-opacity:1;stroke-dasharray:none" id="pupil" inkscape:connector-curvature="0">
</path>
        <path 
        d="M 120.540,516.410 C 120.540,521.150 116.630,524.990 111.840,524.990 107.050,524.990 103.160,521.150 103.160,516.410 103.160,511.670 107.050,507.820 111.840,507.820 116.630,507.820 120.540,511.670 120.540,516.410 Z" style="fill:#ffffff;fill-opacity:1;stroke:none" id="glare" inkscape:connector-curvature="0">
</path>
      </g>
      <path 
      style="opacity:0.240;fill:#000000;stroke:#000000;stroke-width:1px;stroke-linecap:butt;stroke-linejoin:miter;stroke-opacity:1" d="M -119.840,530.470 -75.340,422.060 305.310,412.270 312.280,524.060 C 312.280,524.060 133.190,490.560 59.240,491.050 -18.330,492.530 -119.840,530.470 -119.840,530.470 Z" id="left-lid-shadow" inkscape:connector-curvature="0" sodipodi:nodetypes="ccccsc">
</path>
</g>
</g>
  <g 
  transform="matrix(0.160,0,0,0.160,41.340,38.240)" style="stroke-width:4.360;stroke-miterlimit:4;stroke-dasharray:none" id="right-eye">
    <use 
    transform="matrix(-1,0,0,1,907.590,-127.940)" id="use3959" x="0" y="0" width="250" height="250" xlink:href="#path3622">
</use>
    <g clip-path="url(#clipPath4022)" id="g4015">
      <use 
      transform="translate(582.150,19.940)" style="stroke-width:4.360;stroke-miterlimit:4;stroke-dasharray:none" id="right-lens" x="0" y="0" width="1" height="1" xlink:href="#g4403">
</use>
      <path 
      style="opacity:0.240;fill:#000000;stroke:#000000;stroke-width:1px;stroke-linecap:butt;stroke-linejoin:miter;stroke-miterlimit:4;stroke-opacity:1;stroke-dasharray:none" d="M 507.370,628.340 544.710,378.200 983.410,344.880 1053.960,568.520 C 1053.960,568.520 807.920,471.850 726.830,505.930 645.720,540.010 566.310,606.420 507.370,628.340 Z" id="right-lid-shadow" inkscape:connector-curvature="0" sodipodi:nodetypes="cccczc">
</path>
    </g>
</g>
  <path 
  d="M 116.670,107.120 115.020,115.520 C 107.130,104.290 107.950,97.750 87.380,96 75.550,96.280 67.100,102.990 60.350,103.910 L 59.390,104.650 C 68.510,103.070 71.560,98.460 85.140,95.250 98.130,92.790 106.900,101.150 116.670,107.120 Z" style="fill:#292929;fill-opacity:1;fill-rule:nonzero;stroke:#000000;stroke-width:1;stroke-miterlimit:4;stroke-opacity:1;stroke-dasharray:none" id="left-eye-brow" inkscape:connector-curvature="0" sodipodi:nodetypes="cczcczc">
</path>
  <g style="stroke-width:1" transform="matrix(1.130,0,0,1,-17.270,2.110)" id="nose">
    <path 
    style="fill:#1a1a1a;stroke:#000000;stroke-width:0.940;stroke-miterlimit:4;stroke-dasharray:none" d="M 113.540,157.090 C 113.650,161.110 113.490,163.010 116.260,165.580 119.030,168.170 123.630,170.300 129.610,170.340 135.590,170.370 143.620,166.930 142.350,160.550 141.090,154.140 142.200,163.820 137.660,144.290 140.170,158.090 145.830,157.950 146.670,162.690 147.510,167.440 142.880,166.620 139.190,168.830 135.520,171.040 134.840,171.630 129.830,171.470 124.810,171.320 122.990,171.240 120.550,169.780 118.110,168.310 116.680,166.440 113.730,166.050 110.770,165.660 109.800,162.620 113.450,156.990 Z" id="nose-outline" inkscape:connector-curvature="0" sodipodi:nodetypes="czzzczzzzzc">
</path>
  </g>
  <use 
  transform="matrix(-1,-0.010,-0.010,1,255.340,1.010)" id="right-eye-brow" x="0" y="0" width="250" height="250" xlink:href="#left-eye-brow">
</use>
  <g id="mouth">
    <g id="mouth-interior" clip-path="url(#clipPath-mouth)">
      <rect 
      style="fill:#000000;fill-opacity:1;stroke:none" y="159.93378" x="68.159775" height="66.55629" width="119.94381" id="mouth-background">
</rect>
      <path 
      d="M 98.340,211.420 C 98.010,191.120 114.230,189.740 130.460,189.070 148.010,188.360 161.920,193.110 161.920,211.420 140.730,211.420 119.540,211.420 98.340,211.420 Z" style="fill:#800f08;fill-opacity:1;stroke:none" sodipodi:nodetypes="cscc" inkscape:connector-curvature="0" id="tongue">
</path>
      <g 
      style="stroke:#000000;stroke-opacity:1" transform="translate(4,9.500)" id="upper-teeth" morph="fix-children">
        <rect 
        style="fill:#ffffff;fill-opacity:1;stroke:#000000;stroke-width:1.00441658;stroke-opacity:1" id="tooth-02" width="10.355772" height="15.123333" x="95.524162" y="158.1953" ry="1.3245033" rx="1.3362287" transform="matrix(0.99122501,0.13218537,0,1,0,0)" inkscape:transform-center-y="1.3353219">
</rect>
        <rect 
        style="fill:#ffffff;fill-opacity:1;stroke:#000000;stroke-width:1.00010955;stroke-opacity:1" rx="1.3247935" ry="1.3245033" y="169.93416" x="106.3754" height="15.123333" width="10.267149" id="tooth-03" transform="matrix(0.99978101,0.02092668,0,1,0,0)">
</rect>
        <rect 
        style="fill:#ffffff;fill-opacity:1;stroke:#000000;stroke-opacity:1" id="tooth-04" width="10.2649" height="15.123333" x="118.35211" y="172.32661" ry="1.3245033" rx="1.3245033">
</rect>
        <rect 
        style="fill:#ffffff;fill-opacity:1;stroke:#000000;stroke-width:1.00010955;stroke-opacity:1" rx="1.3247935" ry="1.3245033" y="174.98564" x="130.38066" height="15.123333" width="10.267148" id="tooth-05" transform="matrix(0.99978101,-0.02092669,0,1,0,0)">
</rect>
        <rect 
        style="fill:#ffffff;fill-opacity:1;stroke:#000000;stroke-width:1.00625432;stroke-opacity:1" id="tooth-06" width="10.393703" height="15.123333" x="144.05383" y="194.64574" ry="1.3245033" rx="1.3411231" transform="matrix(0.9876076,-0.15694341,0,1,0,0)">
</rect>
</g>
      <g style="stroke:#000000;stroke-opacity:1" transform="translate(4,26)" id="lower-teeth">
        <rect 
        style="fill:#ffffff;fill-opacity:1;stroke:#000000;stroke-opacity:1" rx="1.3245033" ry="1.3245033" y="172.09084" x="94.352112" height="15.123333" width="10.2649" id="tooth-09">
</rect>
        <rect 
        style="fill:#ffffff;fill-opacity:1;stroke:#000000;stroke-opacity:1" id="tooth-10" width="10.2649" height="15.123333" x="106.35211" y="172.09084" ry="1.3245033" rx="1.3245033">
</rect>
        <rect 
        style="fill:#ffffff;fill-opacity:1;stroke:#000000;stroke-opacity:1" rx="1.3245033" ry="1.3245033" y="172.09084" x="118.35211" height="15.123333" width="10.2649" id="tooth-11">
</rect>
        <rect 
        style="fill:#ffffff;fill-opacity:1;stroke:#000000;stroke-opacity:1" id="tooth-12" width="10.2649" height="15.123333" x="130.35211" y="172.09084" ry="1.3245033" rx="1.3245033">
</rect>
        <rect 
        style="fill:#ffffff;fill-opacity:1;stroke:#000000;stroke-opacity:1" rx="1.3245033" ry="1.3245033" y="172.09084" x="142.35211" height="15.123333" width="10.2649" id="tooth-13">
</rect>
      </g>
    </g>
    <path 
    d="M 169.140,183.100 C 166.340,186.650 164.510,190.140 154.940,192.940 145.360,195.750 144.030,197.960 129.520,197.830 115.010,197.700 109.210,197.350 101.740,194.490 93.220,191.280 88.790,186.590 87.940,184.130 93.240,188.900 95.090,191.780 101.470,193.860 107.850,195.930 111.170,194.970 130.110,194.970 149.050,194.970 150.770,193.070 155.540,192.050 161.170,190.790 164.640,186.070 169.140,183.100 Z" style="fill:none;stroke:#000000;stroke-width:1px;stroke-miterlimit:4;stroke-opacity:1" id="mouth-outline" inkscape:connector-curvature="0" sodipodi:nodetypes="czzzczzzcc">
</path>
  </g>
  <g style="stroke-width:2;stroke-miterlimit:16;stroke-dasharray:none" id="wrinkles">
    <path 
    d="M 124.010,106.100 C 129.290,115.460 127.890,120.790 123.760,131.670" style="fill:none;stroke:#000000;stroke-width:0.500;stroke-linecap:butt;stroke-linejoin:miter;stroke-miterlimit:4;stroke-opacity:1;stroke-dasharray:none" sodipodi:nodetypes="cc" id="wrinkle-left-brow" inkscape:connector-curvature="0">
</path>
    <path 
    d="M 62.970,180.030 C 72.270,182.250 94.270,173.310 89.880,156.340" style="fill:none;stroke:#000000;stroke-width:0.500;stroke-linecap:butt;stroke-linejoin:miter;stroke-opacity:1;stroke-miterlimit:4;stroke-dasharray:none" sodipodi:nodetypes="cc" id="wrinkle-left-cheek" inkscape:connector-curvature="0">
</path>
    <use 
    transform="matrix(-1,0,0,1,253.040,0)" style="stroke-width:0.500;stroke-miterlimit:4;stroke-dasharray:none" height="250" width="250" id="wrinkle-right-brow" xlink:href="#wrinkle-left-brow" y="0" x="0">
</use>
    <use 
    transform="matrix(-1,0,0,1,257.850,0)" style="stroke-width:0.500;stroke-miterlimit:4;stroke-dasharray:none" height="250" width="250" id="wrinkle-right-cheek" xlink:href="#wrinkle-left-cheek" y="0" x="0">
</use>
  </g>
</svg>
