<?xml version="1.0" encoding="UTF-8" standalone="no"?>
<svg
   xmlns:dc="http://purl.org/dc/elements/1.1/"
   xmlns:cc="http://creativecommons.org/ns#"
   xmlns:rdf="http://www.w3.org/1999/02/22-rdf-syntax-ns#"
   xmlns:svg="http://www.w3.org/2000/svg"
   xmlns="http://www.w3.org/2000/svg"
   xmlns:xlink="http://www.w3.org/1999/xlink"
   xmlns:sodipodi="http://sodipodi.sourceforge.net/DTD/sodipodi-0.dtd"
   xmlns:inkscape="http://www.inkscape.org/namespaces/inkscape"
   height="100%"
   width="100%"
   sodipodi:docname="face_++0.svg"
   inkscape:version="0.48.4 r9939"
   id="emoticon-front-view"
   viewBox="0 0 250 250"
   version="1.1">
  <metadata
     id="metadata3099">
    <rdf:RDF>
      <cc:Work
         rdf:about="">
        <dc:format>image/svg+xml</dc:format>
        <dc:type
           rdf:resource="http://purl.org/dc/dcmitype/StillImage" />
        <dc:title />
      </cc:Work>
    </rdf:RDF>
  </metadata>
  <sodipodi:namedview
     inkscape:snap-global="false"
     inkscape:snap-nodes="false"
     inkscape:guide-bbox="true"
     showguides="true"
     inkscape:current-layer="emoticon-front-view"
     inkscape:window-maximized="0"
     inkscape:window-y="39"
     inkscape:window-x="1985"
     inkscape:cy="125"
     inkscape:cx="125"
     inkscape:zoom="3.02"
     showgrid="false"
     id="namedview3097"
     inkscape:window-height="882"
     inkscape:window-width="1528"
     inkscape:pageshadow="2"
     inkscape:pageopacity="0"
     guidetolerance="10"
     gridtolerance="10"
     objecttolerance="10"
     borderopacity="1"
     bordercolor="#666666"
     pagecolor="#ffffff"
     inkscape:snap-bbox="false">
    <sodipodi:guide
       id="guide3013"
       position="129.80132,233.11258"
       orientation="1,0" />
    <sodipodi:guide
       id="guide3016"
       position="96.02649,131.45695"
       orientation="1,0" />
    <sodipodi:guide
       id="guide3018"
       position="159.27152,225.16556"
       orientation="1,0" />
    <sodipodi:guide
       id="guide3020"
       position="187.08609,126.82119"
       orientation="0,1" />
    <sodipodi:guide
       orientation="0,1"
       position="151.92803,65.672732"
       id="guide3045" />
    <sodipodi:guide
       orientation="0,1"
       position="160.59603,192.05298"
       id="guide3036" />
  </sodipodi:namedview>
  <defs
     id="defs4">
    <linearGradient
       id="linearGradient5745">
      <stop
         style="stop-color:#f4f015;stop-opacity:1"
         offset="0"
         id="stop5747" />
      <stop
         style="stop-color:#f68614;stop-opacity:1"
         offset="1"
         id="stop5749" />
    </linearGradient>
    <linearGradient
       id="linearGradient2823">
      <stop
         style="stop-color:#000000;stop-opacity:1"
         offset="0"
         id="stop2825" />
      <stop
         style="stop-color:#6f0a5a;stop-opacity:1"
         offset="1"
         id="stop2827" />
    </linearGradient>
    <clipPath
       id="clipPath2967">
      <use
         transform="translate(-57.14,-22.86)"
         xlink:href="#path3622"
         height="1"
         width="1"
         y="0"
         x="0"
         id="use2969" />
    </clipPath>
    <clipPath
       id="clipPath4022">
      <use
         transform="matrix(-1,0,0,1,915.87,-3.77)"
         xlink:href="#path3622"
         height="250"
         width="250"
         y="0"
         x="0"
         id="use5959" />
    </clipPath>
    <radialGradient
       spreadMethod="pad"
       gradientTransform="matrix(98.09029,121.52782,-104.45905,83.940949,1881.611,1722.6769)"
       gradientUnits="userSpaceOnUse"
       xlink:href="#linearGradient5745"
       id="radialGradient5694"
       fy="2.7052789"
       fx="-15.37231"
       r="1"
       cy="2.7052789"
       cx="-15.37231" />
    <linearGradient
       gradientTransform="translate(37.463072,-25.351165)"
       gradientUnits="userSpaceOnUse"
       xlink:href="#linearGradient2823"
       id="irisGradient"
       y2="606.46576"
       x2="138.57143"
       y1="488.07648"
       x1="107.14286" />
    <clipPath
       clipPathUnits="userSpaceOnUse"
       id="clipPath-mouth">
      <use
         x="0"
         y="0"
         xlink:href="#mouth-outline"
         id="use-mouth-outline"
         width="250"
         height="250" />
    </clipPath>
  </defs>
  <g
     id="head">
    <path
       style="fill:#e9c6af;stroke:#000000;stroke-width:1;stroke-opacity:1"
       d="M 128.48,230.66 C 176.27,230.75 219.01,200.57 219.41,132.64 219.80,64.72 176.76,31.81 126.68,31.53 76.60,31.24 37.38,66.28 37.09,132.64 36.80,199.01 80.69,230.57 128.48,230.66 Z"
       sodipodi:nodetypes="zzzzz"
       inkscape:connector-curvature="0"
       id="path164" />
  </g>
  <g
     transform="matrix(0.16,0,0,0.16,63.137748,30.2284)"
     style="stroke-width:4.36000013;stroke-miterlimit:4;stroke-dasharray:none"
     id="left-eye">
    <path
       d="m 293.84,381.9 c 89.01,62.28 91.11,160.32 42.93,250.95 C 255.92,619.75 127.2,636.29 77.85,654.18 22.45,624 -8.22,483.35 46.09,415.86 100.4,348.38 204.84,319.62 293.84,381.9 z"
       style="fill:#ffffff;stroke:#000000;stroke-width:6.13999987;stroke-miterlimit:4;stroke-opacity:1;stroke-dasharray:none"
       sodipodi:nodetypes="ccccc"
       inkscape:connector-curvature="0"
       id="path3622" />
    <g
       transform="translate(57.14,22.86)"
       style="stroke-width:4.36000013;stroke-miterlimit:4;stroke-dasharray:none"
       id="lens"
       clip-path="url(#clipPath2967)">
      <g
         id="g4403">
        <path
           style="fill:#9d4922;fill-opacity:1;stroke:#000000;stroke-width:6.13999987;stroke-miterlimit:4;stroke-opacity:1;stroke-dasharray:none"
           d="m 205.38,519.39 c 0,14.96 -5.85,29.82 -15.9,40.4 -10.05,10.58 -24.17,16.74 -38.39,16.74 -14.21,0 -28.33,-6.16 -38.38,-16.74 -10.05,-10.58 -15.91,-25.44 -15.91,-40.4 0,-14.96 5.86,-29.83 15.91,-40.41 10.05,-10.58 24.17,-16.74 38.38,-16.74 14.22,0 28.34,6.16 38.39,16.74 10.05,10.58 15.9,25.45 15.9,40.41 z"
           inkscape:connector-curvature="0"
           id="iris" />
        <path
           d="m 168.81,522.49 c 0,4.67 -1.92,9.32 -5.23,12.63 -3.31,3.31 -7.95,5.23 -12.63,5.23 -4.68,0 -9.32,-1.92 -12.63,-5.23 -3.3,-3.31 -5.23,-7.96 -5.23,-12.63 0,-4.68 1.93,-9.33 5.23,-12.64 3.31,-3.3 7.95,-5.23 12.63,-5.23 4.68,0 9.32,1.93 12.63,5.23 3.31,3.31 5.23,7.96 5.23,12.64 z"
           style="fill:#000000;fill-opacity:1;stroke:#000000;stroke-width:6.13999987;stroke-miterlimit:4;stroke-opacity:1;stroke-dasharray:none"
           inkscape:connector-curvature="0"
           id="pupil" />
        <path
           d="m 144.2,490.64 c 0,12.71 -10.4,22.95 -23.23,22.95 -12.82,0 -23.22,-10.24 -23.22,-22.95 0,-12.65 10.4,-22.95 23.22,-22.95 12.83,0 23.23,10.3 23.23,22.95 z"
           style="fill:#ffffff;fill-opacity:1;stroke:none"
           inkscape:connector-curvature="0"
           id="glare" />
      </g>
      <path
         style="opacity:0.23999999;fill:#000000;stroke:#000000;stroke-width:1px;stroke-linecap:butt;stroke-linejoin:miter;stroke-opacity:1"
         d="m -56.36,607.15 -67.41,-248.01 345.46,-125.68 43.19,111.02 c 0,0 -146.49,-89.55 -273.33,-9.56 -121.2,85.94 -47.91,272.23 -47.91,272.23 z"
         sodipodi:nodetypes="ccccsc"
         inkscape:connector-curvature="0"
         id="left-lid-shadow" />
    </g>
  </g>
  <g
     transform="matrix(0.16,0,0,0.16,48.19563,30.8316)"
     style="stroke-width:4.36000013;stroke-miterlimit:4;stroke-dasharray:none"
     id="right-eye">
    <use
       transform="matrix(-1,0,0,1,915.87,-3.77)"
       xlink:href="#path3622"
       height="250"
       width="250"
       y="0"
       x="0"
       id="use3959" />
    <g
       id="g4015"
       clip-path="url(#clipPath4022)">
      <use
         transform="translate(546.23,19.3)"
         style="stroke-width:4.36000013;stroke-miterlimit:4;stroke-dasharray:none"
         xlink:href="#g4403"
         height="1"
         width="1"
         y="0"
         x="0"
         id="right-lens" />
      <path
         style="opacity:0.23999999;fill:#000000;stroke:#000000;stroke-width:1px;stroke-linecap:butt;stroke-linejoin:miter;stroke-miterlimit:4;stroke-opacity:1;stroke-dasharray:none"
         d="M 513.58,591.92 486.77,273.5 855,248.44 968.23,432.77 c 0,0 -163.88,-151.33 -290.51,-104.84 -126.63,46.49 -167.3,196.52 -164.14,263.99 z"
         sodipodi:nodetypes="cccczc"
         inkscape:connector-curvature="0"
         id="right-lid-shadow" />
    </g>
  </g>
  <path
     d="m 109.55774,61.35 -4.1,-1.74 c -7.689992,-2.52 -12.259992,-1.06 -25.549992,0.49 -8.9,2.57 -21.58,15.19 -22.5,24.19 l 1.92,0.7 c 2.08,-11.38 12.44,-20.97 21.62,-22.39 8.58,-0.68 18.05,-0.72 25.719992,0.66 z"
     style="fill:#292929;fill-opacity:1;fill-rule:nonzero;stroke:#000000;stroke-width:1;stroke-miterlimit:4;stroke-opacity:1;stroke-dasharray:none"
     sodipodi:nodetypes="cczcczc"
     inkscape:connector-curvature="0"
     id="left-eye-brow" />
  <g
     style="stroke-width:1"
     transform="matrix(1.13,0,0,1,-17.27,2.11)"
     id="nose">
    <path
       style="fill:#1a1a1a;stroke:#000000;stroke-width:0.94;stroke-miterlimit:4;stroke-dasharray:none"
       d="m 108.27,150.49 c 2.21,2.1 1.04,2.04 6.86,2.13 5.83,0.11 7.704,-1.10668 15.074,-1.05668 7.35,0.06 8.32456,1.87856 13.41572,2.07646 5.09116,0.19789 11.26028,-2.19978 5.10028,-9.37978 6.57,6.28 -0.012,9.81823 -3.92571,9.96978 -3.91373,0.15155 -3.50244,1.14988 -6.13372,0.60945 -2.63129,-0.54044 -0.48152,-2.07945 -8.41057,-1.90923 -7.92905,0.17022 -4.50943,1.72911 -7.95943,2.17911 -3.44,0.43 -3.22801,-1.28989 -7.28429,-1.29944 C 110.95,153.80011 109.57,153.14 108,150.2 z"
       sodipodi:nodetypes="czzzczzzzzcc"
       inkscape:connector-curvature="0"
       id="nose-outline" />
  </g>
  <use
     transform="matrix(-1,0,0,1,257.38435,0)"
     xlink:href="#left-eye-brow"
     height="250"
     width="250"
     y="0"
     x="0"
     id="right-eye-brow" />
  <g
     id="mouth">
    <g
       clip-path="url(#clipPath-mouth)"
       id="mouth-interior">
      <rect
         style="fill:#000000;fill-opacity:1;stroke:none"
         id="mouth-background"
         width="145.36424"
         height="66.55629"
         x="52.649006"
         y="159.93378" />
      <path
         d="M 98.34,209.75 C 98.01,189.46 114.23,188.07 130.46,187.40 148.01,186.69 161.92,191.44 161.92,209.75 140.73,209.75 119.54,209.75 98.34,209.75 Z"
         style="fill:#800f08;fill-opacity:1;stroke:none"
         id="tongue"
         inkscape:connector-curvature="0"
         sodipodi:nodetypes="cscc" />
      <g
         style="stroke:#000000;stroke-opacity:1"
         transform="translate(4,-7.97)"
         id="upper-teeth">
        <rect
           style="fill:#ffffff;fill-opacity:1;stroke:#000000;stroke-opacity:1"
           rx="1.3245033"
           ry="1.3245033"
           y="172.09084"
           x="94.352112"
           height="15.123333"
           width="10.2649"
           id="tooth-02" />
        <rect
           style="fill:#ffffff;fill-opacity:1;stroke:#000000;stroke-opacity:1"
           id="tooth-03"
           width="10.2649"
           height="15.123333"
           x="106.35211"
           y="172.09084"
           ry="1.3245033"
           rx="1.3245033" />
        <rect
           style="fill:#ffffff;fill-opacity:1;stroke:#000000;stroke-opacity:1"
           rx="1.3245033"
           ry="1.3245033"
           y="172.09084"
           x="118.35211"
           height="15.123333"
           width="10.2649"
           id="tooth-04" />
        <rect
           style="fill:#ffffff;fill-opacity:1;stroke:#000000;stroke-opacity:1"
           id="tooth-05"
           width="10.2649"
           height="15.123333"
           x="130.35211"
           y="172.09084"
           ry="1.3245033"
           rx="1.3245033" />
        <rect
           style="fill:#ffffff;fill-opacity:1;stroke:#000000;stroke-opacity:1"
           rx="1.3245033"
           ry="1.3245033"
           y="172.09084"
           x="142.35211"
           height="15.123333"
           width="10.2649"
           id="tooth-06" />
      </g>
      <g
         style="stroke:#000000;stroke-opacity:1"
         transform="translate(4,26.33)"
         id="lower-teeth">
        <rect
           style="fill:#ffffff;fill-opacity:1;stroke:#000000;stroke-opacity:1"
           id="tooth-09"
           width="10.2649"
           height="15.123333"
           x="94.352112"
           y="172.09084"
           ry="1.3245033"
           rx="1.3245033" />
        <rect
           style="fill:#ffffff;fill-opacity:1;stroke:#000000;stroke-opacity:1"
           rx="1.3245033"
           ry="1.3245033"
           y="172.09084"
           x="106.35211"
           height="15.123333"
           width="10.2649"
           id="tooth-10" />
        <rect
           style="fill:#ffffff;fill-opacity:1;stroke:#000000;stroke-opacity:1"
           id="tooth-11"
           width="10.2649"
           height="15.123333"
           x="118.35211"
           y="172.09084"
           ry="1.3245033"
           rx="1.3245033" />
        <rect
           style="fill:#ffffff;fill-opacity:1;stroke:#000000;stroke-opacity:1"
           rx="1.3245033"
           ry="1.3245033"
           y="172.09084"
           x="130.35211"
           height="15.123333"
           width="10.2649"
           id="tooth-12" />
        <rect
           style="fill:#ffffff;fill-opacity:1;stroke:#000000;stroke-opacity:1"
           id="tooth-13"
           width="10.2649"
           height="15.123333"
           x="142.35211"
           y="172.09084"
           ry="1.3245033"
           rx="1.3245033" />
      </g>
    </g>
    <path
       d="m 178.9504,164.65211 c -0.3021,3.48057 -3.21742,24.47352 -12.45742,30.59352 -9.25,6.12 -15.4226,7.63609 -36.6126,7.81609 -21.2,0.18 -30.233934,-3.63437 -39.298857,-10.82059 -9.064923,-7.18622 -14.486873,-23.74746 -14.54025,-28.21647 5.245629,1.71225 7.674743,2.5769 17.821782,3.55843 10.147035,0.98153 17.062945,1.00155 35.107325,1.01155 18.04439,0.01 23.85049,0.73238 32.01279,-0.25724 8.1623,-0.98962 10.75647,-2.1328 17.96723,-3.68529 z"
       style="fill:none;stroke:#000000;stroke-width:1px;stroke-miterlimit:4;stroke-opacity:1"
       sodipodi:nodetypes="czzzczzzc"
       inkscape:connector-curvature="0"
       id="mouth-outline" />
  </g>
</svg>
