<?xml version="1.0" encoding="UTF-8" standalone="no"?>
<svg
   xmlns:dc="http://purl.org/dc/elements/1.1/"
   xmlns:cc="http://creativecommons.org/ns#"
   xmlns:rdf="http://www.w3.org/1999/02/22-rdf-syntax-ns#"
   xmlns:svg="http://www.w3.org/2000/svg"
   xmlns="http://www.w3.org/2000/svg"
   xmlns:xlink="http://www.w3.org/1999/xlink"
   xmlns:sodipodi="http://sodipodi.sourceforge.net/DTD/sodipodi-0.dtd"
   xmlns:inkscape="http://www.inkscape.org/namespaces/inkscape"
   id="emoticon-front-view"
   viewBox="0 0 250 250"
   sodipodi:docname="face_00+.svg"
   height="100%"
   width="100%"
   inkscape:version="0.48.4 r9939"
   version="1.1">
  <metadata
     id="metadata3099">
    <rdf:RDF>
      <cc:Work
         rdf:about="">
        <dc:format>image/svg+xml</dc:format>
        <dc:type
           rdf:resource="http://purl.org/dc/dcmitype/StillImage" />
        <dc:title />
      </cc:Work>
    </rdf:RDF>
  </metadata>
  <sodipodi:namedview
     id="namedview3097"
     inkscape:snap-page="true"
     inkscape:snap-grids="true"
     pagecolor="#ffffff"
     borderopacity="1"
     gridtolerance="10"
     inkscape:pageopacity="0"
     inkscape:window-width="1855"
     showgrid="false"
     inkscape:cx="124.7506"
     inkscape:window-x="1985"
     inkscape:window-maximized="1"
     showguides="true"
     inkscape:snap-nodes="true"
     inkscape:snap-global="true"
     inkscape:guide-bbox="true"
     inkscape:current-layer="emoticon-front-view"
     inkscape:window-y="24"
     inkscape:cy="118.90579"
     inkscape:zoom="4.5420026"
     inkscape:window-height="1056"
     inkscape:pageshadow="2"
     guidetolerance="10"
     objecttolerance="10"
     bordercolor="#666666"
     inkscape:snap-bbox="true" />
  <defs
     id="defs">
    <clipPath
       id="clipPath-left-eye">
      <use
         transform="matrix(1,0,0,1,0,0)"
         x="0"
         width="1"
         xlink:href="#left-eye-outline"
         height="1"
         y="0"
         id="use-left-eye-outline-1" />
    </clipPath>
    <clipPath
       id="clipPath-right-eye">
      <use
         transform="matrix(-1,0,0,1,250,0)"
         id="use-left-eye-outline-2"
         y="0"
         height="250"
         xlink:href="#left-eye-outline"
         width="250"
         x="0"
         morph="fixed" />
    </clipPath>
    <clipPath
       id="clipPath-mouth"
       clipPathUnits="userSpaceOnUse">
      <use
         transform="matrix(1,0,0,1,0,0)"
         height="250"
         y="0"
         x="0"
         xlink:href="#mouth-outline"
         id="use-mouth-outline"
         width="250" />
    </clipPath>
  </defs>
  <g
     id="head">
    <path
       d="M 124.98,230.66 C 172.77,230.75 215.51,200.57 215.91,132.64 216.3,64.72 173.26,31.81 123.18,31.53 73.1,31.24 33.88,66.28 33.59,132.64 33.3,199.01 77.19,230.57 124.98,230.66 Z"
       style="fill:#e9c6af;stroke:#000000;stroke-width:1"
       id="head-outline"
       sodipodi:nodetypes="zzzzz"
       inkscape:connector-curvature="0" />
  </g>
  <g
     id="left-eye">
    <path
       d="M 95.09,115.78 C 103.12,118.46 108.91,123.15 108.64,129.77 100.21,133.6 68.31,136.35 69,123.12 69.62,111.28 87.06,113.1 95.09,115.78 Z"
       style="fill:#ffffff;stroke:#000000;stroke-width:1"
       id="left-eye-outline"
       sodipodi:nodetypes="ccccc"
       inkscape:connector-curvature="0" />
    <g
       clip-path="url(#clipPath-left-eye)"
       id="left-eyeball">
      <g
         id="left-lens">
        <path
           d="M 1,0.5 C 1,0.78 0.78,1 0.5,1 0.22,1 0,0.78 0,0.5 0,0.22 0.22,0 0.5,0 0.78,0 1,0.22 1,0.5 z"
           transform="matrix(17.83,0,0,17.83,84.21,114.95)"
           style="fill:#9d4922;stroke:#000000;stroke-width:0.06"
           id="iris"
           morph="relative"
           inkscape:connector-curvature="0" />
        <path
           d="M 1,0.5 C 1,0.78 0.78,1 0.5,1 0.22,1 0,0.78 0,0.5 0,0.22 0.22,0 0.5,0 0.78,0 1,0.22 1,0.5 z"
           transform="matrix(5.72,0,0,5.72,90.18,121)"
           style="fill:#000000;stroke:#000000;stroke-width:0.17"
           id="pupil"
           morph="relative"
           inkscape:connector-curvature="0"
           sodipodi:nodetypes="sssss" />
        <path
           d="M 1,0.5 C 1,0.78 0.78,1 0.5,1 0.22,1 0,0.78 0,0.5 0,0.22 0.22,0 0.5,0 0.78,0 1,0.22 1,0.5 z"
           transform="matrix(2.52,0,0,2.52,88.7,121.27)"
           style="fill:#ffffff;stroke:none"
           id="glare"
           inkscape:connector-curvature="0"
           morph="transform-only" />
      </g>
      <path
         d="M 50,75 125,75 125,131.92 C 83.47,107.97 62.25,114.53 50,142.9 Z"
         style="opacity:0.24;fill:#000000;stroke:#000000;stroke-width:0px"
         id="left-lid-shadow"
         sodipodi:nodetypes="ccccc"
         inkscape:connector-curvature="0" />
    </g>
  </g>
  <g
     id="right-eye">
    <use
       transform="matrix(-1,0,0,1,250,0)"
       id="right-eye-outline"
       y="0"
       height="250"
       xlink:href="#left-eye-outline"
       width="250"
       x="0"
       morph="fixed" />
    <g
       clip-path="url(#clipPath-right-eye)"
       id="right-eyeball">
      <use
         transform="matrix(1,0,0,1,64,0)"
         id="right-lens"
         y="0"
         height="1"
         xlink:href="#left-lens"
         width="1"
         x="0"
         morph="fixed" />
      <path
         d="M 125,133.48 125,75 200,75 200,125.84 C 183.68,114.9 153.12,112.59 125,133.48 Z"
         style="opacity:0.24;fill:#000000;stroke:#000000;stroke-width:0px"
         id="right-lid-shadow"
         sodipodi:nodetypes="ccccc"
         inkscape:connector-curvature="0" />
    </g>
  </g>
  <path
     d="M 118.24,121.87 C 103.29,112.66 85.1,107.29 70.39,108.28 L 73.16,105.88 C 89.07,104.87 103.09,109.45 118.9,110.3 Z"
     style="fill:#292929;stroke-width:1"
     id="left-eye-brow"
     sodipodi:nodetypes="ccccc"
     inkscape:connector-curvature="0" />
  <g
     id="nose">
    <path
       d="m 115.51155,165.29153 c 2.42111,-0.99854 6.08743,-0.93364 8.74602,0.22162 m 7.97435,-34.60079 c 2.96983,15.46533 14.19159,26.49613 10.23232,31.62889 -2.76392,3.58312 -5.77942,0.50539 -10.17601,3.35592"
       style="fill:none;stroke:#000000;stroke-width:1"
       id="nose-path"
       sodipodi:nodetypes="cccsc"
       inkscape:connector-curvature="0" />
  </g>
  <use
     transform="matrix(-1,0,0,1,250,0)"
     x="0"
     width="250"
     xlink:href="#left-eye-brow"
     height="250"
     y="0"
     id="right-eye-brow" />
  <g
     id="mouth">
    <g
       id="mouth-interior"
       clip-path="url(#clipPath-mouth)">
      <rect
         style="fill:#000000;stroke:none"
         id="mouth-background"
         x="68.159775"
         width="119.94381"
         height="66.55629"
         y="159.93378" />
      <path
         d="M 94.84,211.42 C 94.51,191.12 110.73,189.74 126.96,189.07 144.51,188.36 158.42,193.11 158.42,211.42 137.23,211.42 116.04,211.42 94.84,211.42 Z"
         style="fill:#800f08;stroke:none"
         id="tongue"
         inkscape:connector-curvature="0"
         sodipodi:nodetypes="cscc" />
      <g
         transform="matrix(1,0,0,1,0.5,-1.01)"
         morph="fix-children"
         id="upper-teeth">
        <rect
           width="10.355772"
           x="96.361504"
           ry="1.3245033"
           transform="matrix(0.99122501,0.13218537,0,1,0,0)"
           inkscape:transform-center-y="1.3353219"
           rx="1.3362287"
           y="158.0847"
           height="15.123333"
           id="tooth-02"
           style="fill:#ffffff;fill-opacity:1;stroke:#000000;stroke-width:1.00441658;stroke-opacity:1" />
        <rect
           rx="1.3247935"
           y="169.91676"
           height="15.123333"
           transform="matrix(0.99978101,0.02092668,0,1,0,0)"
           id="tooth-03"
           width="10.267149"
           x="107.20548"
           ry="1.3245033"
           style="fill:#ffffff;fill-opacity:1;stroke:#000000;stroke-width:1.00010955;stroke-opacity:1" />
        <rect
           width="10.2649"
           x="119.18203"
           ry="1.3245033"
           rx="1.3245033"
           y="172.32661"
           height="15.123333"
           id="tooth-04"
           style="fill:#ffffff;fill-opacity:1;stroke:#000000;stroke-opacity:1" />
        <rect
           rx="1.3247935"
           y="175.00304"
           height="15.123333"
           transform="matrix(0.99978101,-0.02092669,0,1,0,0)"
           id="tooth-05"
           width="10.267148"
           x="131.21086"
           ry="1.3245033"
           style="fill:#ffffff;fill-opacity:1;stroke:#000000;stroke-width:1.00010955;stroke-opacity:1" />
        <rect
           width="10.393703"
           x="144.89429"
           ry="1.3245033"
           transform="matrix(0.9876076,-0.15694341,0,1,0,0)"
           rx="1.3411231"
           y="194.77757"
           height="15.123333"
           id="tooth-06"
           style="fill:#ffffff;fill-opacity:1;stroke:#000000;stroke-width:1.00625432;stroke-opacity:1" />
      </g>
      <g
         transform="matrix(1,0,0,1,0.5,22)"
         id="lower-teeth"
         morph="fix-children">
        <rect
           style="fill:#ffffff;fill-opacity:1;stroke:#000000;stroke-opacity:1"
           ry="1.3245033"
           x="95.314705"
           width="10.2649"
           id="tooth-09"
           height="15.123333"
           y="172.09084"
           rx="1.3245033" />
        <rect
           style="fill:#ffffff;fill-opacity:1;stroke:#000000;stroke-opacity:1"
           id="tooth-10"
           height="15.123333"
           y="172.09084"
           rx="1.3245033"
           ry="1.3245033"
           x="107.31471"
           width="10.2649" />
        <rect
           style="fill:#ffffff;fill-opacity:1;stroke:#000000;stroke-opacity:1"
           ry="1.3245033"
           x="119.31471"
           width="10.2649"
           id="tooth-11"
           height="15.123333"
           y="172.09084"
           rx="1.3245033" />
        <rect
           style="fill:#ffffff;fill-opacity:1;stroke:#000000;stroke-opacity:1"
           id="tooth-12"
           height="15.123333"
           y="172.09084"
           rx="1.3245033"
           ry="1.3245033"
           x="131.31459"
           width="10.2649" />
        <rect
           style="fill:#ffffff;fill-opacity:1;stroke:#000000;stroke-opacity:1"
           ry="1.3245033"
           x="143.31459"
           width="10.2649"
           id="tooth-13"
           height="15.123333"
           y="172.09084"
           rx="1.3245033" />
      </g>
    </g>
    <path
       style="fill:none;stroke:#000000;stroke-width:1px"
       d="M 162.77,187.76 C 161.48,196.22 135.32,196.61 125,196.61 114.68,196.61 88.53,196.22 87.24,187.76 99.97,186.49 112.28,186.1 125,186.1 137.72,186.1 150.04,186.49 162.77,187.76 Z"
       id="mouth-outline"
       sodipodi:nodetypes="ccccc"
       inkscape:connector-curvature="0" />
  </g>
  <g
     id="wrinkles">
    <path
       d="M 120.55,103.07 C 122.12,108.96 120.45,124.82 119.21,126.48"
       style="fill:none;stroke:#000000;stroke-width:0.5"
       id="wrinkle-left-brow"
       inkscape:connector-curvature="0"
       sodipodi:nodetypes="cc" />
    <path
       d="M 78.58,185.68 C 86.1,181.52 92.22,172.86 95.53,167.11"
       style="fill:none;stroke:#000000;stroke-width:0.5"
       id="wrinkle-left-cheek"
       inkscape:connector-curvature="0"
       sodipodi:nodetypes="cc" />
    <use
       transform="matrix(-1,0,0,1,250,0)"
       morph="fixed"
       height="250"
       y="0"
       x="0"
       xlink:href="#wrinkle-left-brow"
       id="wrinkle-right-brow"
       width="250" />
    <use
       transform="matrix(-1,0,0,1,250,0)"
       morph="fixed"
       height="250"
       y="0"
       x="0"
       xlink:href="#wrinkle-left-cheek"
       id="wrinkle-right-cheek"
       width="250" />
  </g>
</svg>
