<?xml version="1.0" encoding="UTF-8" standalone="no"?>
<svg
   xmlns:dc="http://purl.org/dc/elements/1.1/"
   xmlns:cc="http://creativecommons.org/ns#"
   xmlns:rdf="http://www.w3.org/1999/02/22-rdf-syntax-ns#"
   xmlns:svg="http://www.w3.org/2000/svg"
   xmlns="http://www.w3.org/2000/svg"
   xmlns:xlink="http://www.w3.org/1999/xlink"
   xmlns:sodipodi="http://sodipodi.sourceforge.net/DTD/sodipodi-0.dtd"
   xmlns:inkscape="http://www.inkscape.org/namespaces/inkscape"
   height="100%"
   width="100%"
   sodipodi:docname="face_+-0.svg"
   inkscape:version="0.48.4 r9939"
   id="emoticon-front-view"
   viewBox="0 0 250 250"
   version="1.1">
  <metadata
     id="metadata3099">
    <rdf:RDF>
      <cc:Work
         rdf:about="">
        <dc:format>image/svg+xml</dc:format>
        <dc:type
           rdf:resource="http://purl.org/dc/dcmitype/StillImage" />
        <dc:title />
      </cc:Work>
    </rdf:RDF>
  </metadata>
  <sodipodi:namedview
     inkscape:snap-global="false"
     inkscape:snap-nodes="false"
     inkscape:guide-bbox="true"
     showguides="true"
     inkscape:current-layer="emoticon-front-view"
     inkscape:window-maximized="0"
     inkscape:window-y="41"
     inkscape:window-x="1984"
     inkscape:cy="125"
     inkscape:cx="125"
     inkscape:zoom="3.02"
     showgrid="false"
     id="namedview3097"
     inkscape:window-height="882"
     inkscape:window-width="1530"
     inkscape:pageshadow="2"
     inkscape:pageopacity="0"
     guidetolerance="10"
     gridtolerance="10"
     objecttolerance="10"
     borderopacity="1"
     bordercolor="#666666"
     pagecolor="#ffffff">
    <sodipodi:guide
       id="guide3013"
       position="129.80132,233.11258"
       orientation="1,0" />
    <sodipodi:guide
       id="guide3015"
       position="6.2913907,118.21192"
       orientation="0,1" />
  </sodipodi:namedview>
  <defs
     id="defs4">
    <linearGradient
       id="linearGradient5745">
      <stop
         style="stop-color:#f4f015;stop-opacity:1"
         offset="0"
         id="stop5747" />
      <stop
         style="stop-color:#f68614;stop-opacity:1"
         offset="1"
         id="stop5749" />
    </linearGradient>
    <linearGradient
       id="linearGradient2823">
      <stop
         style="stop-color:#000000;stop-opacity:1"
         offset="0"
         id="stop2825" />
      <stop
         style="stop-color:#6f0a5a;stop-opacity:1"
         offset="1"
         id="stop2827" />
    </linearGradient>
    <clipPath
       id="clipPath2967">
      <use
         transform="translate(-48.86,-147.03)"
         xlink:href="#path3622"
         height="1"
         width="1"
         y="0"
         x="0"
         id="use2969" />
    </clipPath>
    <clipPath
       id="clipPath4022">
      <use
         transform="matrix(-1,0,0,1,907.59,-127.94)"
         xlink:href="#path3622"
         height="250"
         width="250"
         y="0"
         x="0"
         id="use5959" />
    </clipPath>
    <radialGradient
       spreadMethod="pad"
       gradientTransform="matrix(98.09029,121.52782,-104.45905,83.940949,1881.611,1722.6769)"
       gradientUnits="userSpaceOnUse"
       xlink:href="#linearGradient5745"
       id="radialGradient5694"
       fy="2.7052789"
       fx="-15.37231"
       r="1"
       cy="2.7052789"
       cx="-15.37231" />
    <linearGradient
       gradientTransform="translate(37.463072,-25.351165)"
       gradientUnits="userSpaceOnUse"
       xlink:href="#linearGradient2823"
       id="irisGradient"
       y2="606.46576"
       x2="138.57143"
       y1="488.07648"
       x1="107.14286" />
  </defs>
  <g
     id="head">
    <path
       sodipodi:nodetypes="zzzzz"
       inkscape:connector-curvature="0"
       style="fill:#e9c6af;stroke:#000000;stroke-width:1;stroke-opacity:1"
       id="path164"
       d="m 128.48,230.65784 c 47.79212,0.0895 90.53449,-30.09235 90.92518,-98.01396 C 219.79587,64.722271 176.76201,31.80892 126.68,31.525 76.597989,31.24108 37.38,66.280819 37.09,132.64388 c -0.29,66.36306 43.597878,97.92445 91.39,98.01396 z" />
  </g>
  <g
     transform="matrix(0.16,0,0,0.16,57.45,26.08)"
     style="stroke-width:4.36;stroke-miterlimit:4;stroke-dasharray:none"
     id="left-eye">
    <path
       d="m 237.95675,631.3802 c 41.38374,6.92218 73.14484,31.98887 87.46325,69.0498 -63.87397,-14.95166 -187.94437,-15.49166 -288.510927,0.55722 21.867417,-25.58165 37.837678,-46.50129 69.226957,-60.60748 31.38927,-14.10619 90.43698,-15.92172 131.82072,-8.99954 z"
       style="fill:#ffffff;stroke:#000000;stroke-width:6.13999987;stroke-miterlimit:4;stroke-opacity:1;stroke-dasharray:none"
       sodipodi:nodetypes="zcczz"
       inkscape:connector-curvature="0"
       id="path3622" />
    <g
       transform="translate(48.86,147.03)"
       style="stroke-width:4.36;stroke-miterlimit:4;stroke-dasharray:none"
       id="lens"
       clip-path="url(#clipPath2967)">
      <g
         id="g4403">
        <path
           inkscape:connector-curvature="0"
           style="fill:#9d4922;fill-opacity:1;stroke:#000000;stroke-width:6.13999987;stroke-miterlimit:4;stroke-opacity:1;stroke-dasharray:none"
           id="iris"
           d="m 205.38,519.39 c 0,14.96 -5.85,29.82 -15.9,40.4 -10.05,10.58 -24.17,16.74 -38.39,16.74 -14.21,0 -28.33,-6.16 -38.38,-16.74 -10.05,-10.58 -15.91,-25.44 -15.91,-40.4 0,-14.96 5.86,-29.83 15.91,-40.41 10.05,-10.58 24.17,-16.74 38.38,-16.74 14.22,0 28.34,6.16 38.39,16.74 10.05,10.58 15.9,25.45 15.9,40.41 z" />
        <path
           d="M 168.81,522.49 C 168.81,527.16 166.89,531.81 163.58,535.12 160.27,538.43 155.63,540.35 150.95,540.35 146.27,540.35 141.63,538.43 138.32,535.12 135.02,531.81 133.09,527.16 133.09,522.49 133.09,517.81 135.02,513.16 138.32,509.85 141.63,506.55 146.27,504.62 150.95,504.62 155.63,504.62 160.27,506.55 163.58,509.85 166.89,513.16 168.81,517.81 168.81,522.49 Z"
           style="fill:#000000;fill-opacity:1;stroke:#000000;stroke-width:6.14;stroke-miterlimit:4;stroke-opacity:1;stroke-dasharray:none"
           inkscape:connector-curvature="0"
           id="pupil" />
        <path
           d="M 120.54,516.41 C 120.54,521.15 116.63,524.99 111.84,524.99 107.05,524.99 103.16,521.15 103.16,516.41 103.16,511.67 107.05,507.82 111.84,507.82 116.63,507.82 120.54,511.67 120.54,516.41 Z"
           style="fill:#ffffff;fill-opacity:1;stroke:none"
           inkscape:connector-curvature="0"
           id="glare" />
      </g>
      <path
         style="opacity:0.23999999;fill:#000000;stroke:#000000;stroke-width:1px;stroke-linecap:butt;stroke-linejoin:miter;stroke-opacity:1"
         d="m -60.66,519.3 44.51,-108.42 316.49,4.7 6.97,111.79 c 0,0 -90.87139,-45.12258 -196.64046,-31.75119 C 19.366386,507.16141 -60.66,519.3 -60.66,519.3 z"
         sodipodi:nodetypes="ccccsc"
         inkscape:connector-curvature="0"
         id="left-lid-shadow" />
    </g>
  </g>
  <g
     transform="matrix(0.16,0,0,0.16,39.55,46.56)"
     style="stroke-width:4.36;stroke-miterlimit:4;stroke-dasharray:none"
     id="right-eye">
    <use
       transform="matrix(-1,0,0,1,907.59,-127.94)"
       xlink:href="#path3622"
       height="250"
       width="250"
       y="0"
       x="0"
       id="use3959" />
    <g
       id="g4015"
       clip-path="url(#clipPath4022)">
      <use
         transform="translate(582.15,19.54)"
         style="stroke-width:4.36;stroke-miterlimit:4;stroke-dasharray:none"
         xlink:href="#g4403"
         height="1"
         width="1"
         y="0"
         x="0"
         id="right-lens" />
      <path
         style="opacity:0.23999999;fill:#000000;stroke:#000000;stroke-width:1px;stroke-linecap:butt;stroke-linejoin:miter;stroke-miterlimit:4;stroke-opacity:1;stroke-dasharray:none"
         d="m 507.37205,628.34152 37.34259,-250.14066 297.87814,-25.04232 140.12397,240.20749 c 0,0 -223.89681,-112.01112 -304.99443,-77.9351 -81.09762,34.07602 -136.25953,66.13431 -170.35027,112.91059 z"
         sodipodi:nodetypes="cccczc"
         inkscape:connector-curvature="0"
         id="right-lid-shadow" />
    </g>
  </g>
  <path
     d="m 110.14888,106.49086 -1.12338,0.37451 C 102.10676,103.34185 101.2637,99.919518 82.373377,99.497088 63.483058,99.074657 58.160994,108.66861 52.89,114.46 l -1.258874,-1.63212 C 56.060994,105.01298 69.022493,97.264734 82.59,97.439338 c 13.567507,0.174604 22.89056,3.937762 27.55888,9.051522 z"
     style="fill:#292929;fill-opacity:1;fill-rule:nonzero;stroke:#000000;stroke-width:1;stroke-miterlimit:4;stroke-opacity:1;stroke-dasharray:none"
     sodipodi:nodetypes="cczcczc"
     inkscape:connector-curvature="0"
     id="left-eye-brow" />
  <g
     transform="matrix(1.1323973,0,0,1,-17.273681,2.1126016)"
     style="stroke-width:1"
     id="nose-2">
    <path
       sodipodi:nodetypes="cczzzczzzzzc"
       inkscape:connector-curvature="0"
       id="nose-outline-2"
       d="m 115.22888,161.44374 c -2.63092,-0.15395 -4.57641,-4.61384 -0.076,-12.08236 -3.31006,5.65009 -0.45831,10.19743 2.40691,10.50534 2.86522,0.30791 7.82668,-2.11244 13.1243,-2.09085 5.29762,0.0216 12.67768,4.55512 12.97053,-2.25708 0.29285,-6.8122 -0.96024,-4.57547 -4.58238,-22.26319 2.82709,16.03743 9.21489,15.05265 9.87323,23.00444 0.65833,7.95179 -4.26184,5.08749 -9.69938,5.06903 -5.43753,-0.0185 -2.09867,1.39085 -8.45245,1.19974 -6.35378,-0.19111 -3.05351,-1.72636 -7.63966,-2.14255 -4.58614,-0.41618 -5.29421,1.21143 -7.92513,1.05748 z"
       style="fill:#1a1a1a;stroke:#000000;stroke-width:0.93972456;stroke-miterlimit:4;stroke-dasharray:none" />
  </g>
  <path
     d="M 73.71,175.75 C 73.71,175.75 86.20,206.75 128.21,205.96 172.75,205.05 183.91,171.23 183.91,171.23 L 183.37,174.70 C 183.37,174.70 179.98,204.91 127.92,205.89 75.32,206.48 74.08,178.39 74.08,178.39 L 73.71,175.75 Z"
     style="fill:#000000;fill-opacity:1;stroke:#000000;stroke-width:0.62;stroke-linecap:butt;stroke-linejoin:miter;stroke-miterlimit:4;stroke-opacity:1;stroke-dasharray:none"
     inkscape:connector-curvature="0"
     id="mouth-path" />
  <use
     transform="matrix(-1,-0.01,-0.01,1,248.81,1.52)"
     xlink:href="#left-eye-brow"
     height="250"
     width="250"
     y="0"
     x="0"
     id="right-eye-brow" />
</svg>
