<?xml version="1.0" encoding="UTF-8" standalone="no"?>
<svg
   xmlns:dc="http://purl.org/dc/elements/1.1/"
   xmlns:cc="http://creativecommons.org/ns#"
   xmlns:rdf="http://www.w3.org/1999/02/22-rdf-syntax-ns#"
   xmlns:svg="http://www.w3.org/2000/svg"
   xmlns="http://www.w3.org/2000/svg"
   xmlns:xlink="http://www.w3.org/1999/xlink"
   xmlns:sodipodi="http://sodipodi.sourceforge.net/DTD/sodipodi-0.dtd"
   xmlns:inkscape="http://www.inkscape.org/namespaces/inkscape"
   version="1.1"
   viewBox="0 0 250 250"
   id="emoticon-front-view"
   inkscape:version="0.48.4 r9939"
   sodipodi:docname="face_++0.svg"
   width="100%"
   height="100%">
  <metadata
     id="metadata3099">
    <rdf:RDF>
      <cc:Work
         rdf:about="">
        <dc:format>image/svg+xml</dc:format>
        <dc:type
           rdf:resource="http://purl.org/dc/dcmitype/StillImage" />
        <dc:title />
      </cc:Work>
    </rdf:RDF>
  </metadata>
  <sodipodi:namedview
     inkscape:snap-bbox="false"
     pagecolor="#ffffff"
     bordercolor="#666666"
     borderopacity="1"
     objecttolerance="10"
     gridtolerance="10"
     guidetolerance="10"
     inkscape:pageopacity="0"
     inkscape:pageshadow="2"
     inkscape:window-width="1855"
     inkscape:window-height="1056"
     id="namedview3097"
     showgrid="false"
     inkscape:zoom="3.716"
     inkscape:cx="77.637244"
     inkscape:cy="125"
     inkscape:window-x="1985"
     inkscape:window-y="24"
     inkscape:window-maximized="1"
     inkscape:current-layer="emoticon-front-view"
     showguides="true"
     inkscape:guide-bbox="true"
     inkscape:snap-nodes="false"
     inkscape:snap-global="false">
    <sodipodi:guide
       orientation="0,1"
       position="-74.811625,250"
       id="guide3036" />
  </sodipodi:namedview>
  <defs
     id="defs4">
    <linearGradient
       id="linearGradient5745">
      <stop
         style="stop-color:#f4f015;stop-opacity:1"
         id="stop5747"
         offset="0" />
      <stop
         style="stop-color:#f68614;stop-opacity:1"
         id="stop5749"
         offset="1" />
    </linearGradient>
    <linearGradient
       id="linearGradient2823">
      <stop
         style="stop-color:#000000;stop-opacity:1"
         id="stop2825"
         offset="0" />
      <stop
         style="stop-color:#6f0a5a;stop-opacity:1"
         id="stop2827"
         offset="1" />
    </linearGradient>
    <clipPath
       id="clipPath2967">
      <use
         transform="translate(-57.140,-22.860)"
         id="use2969"
         x="0"
         y="0"
         width="1"
         height="1"
         xlink:href="#path3622" />
    </clipPath>
    <clipPath
       id="clipPath4022">
      <use
         transform="matrix(-1,0,0,1,915.870,-3.770)"
         id="use5959"
         x="0"
         y="0"
         width="250"
         height="250"
         xlink:href="#path3622" />
    </clipPath>
    <radialGradient
       cx="-15.37231"
       cy="2.7052789"
       r="1"
       fx="-15.37231"
       fy="2.7052789"
       id="radialGradient5694"
       xlink:href="#linearGradient5745"
       gradientUnits="userSpaceOnUse"
       gradientTransform="matrix(98.09029,121.52782,-104.45905,83.940949,1881.611,1722.6769)"
       spreadMethod="pad" />
    <linearGradient
       x1="107.14286"
       y1="488.07648"
       x2="138.57143"
       y2="606.46576"
       id="irisGradient"
       xlink:href="#linearGradient2823"
       gradientUnits="userSpaceOnUse"
       gradientTransform="translate(37.463072,-25.351165)" />
    <clipPath
       id="clipPath-mouth"
       clipPathUnits="userSpaceOnUse">
      <use
         height="250"
         width="250"
         id="use-mouth-outline"
         xlink:href="#mouth-outline"
         y="0"
         x="0" />
    </clipPath>
  </defs>
  <g
     id="head">
    <path
       style="fill:#e9c6af;stroke:#000000;stroke-width:1;stroke-opacity:1"
       d="M 128.480,230.660 C 176.270,230.750 219.010,200.570 219.410,132.640 219.800,64.720 176.760,31.810 126.680,31.530 76.600,31.240 37.380,66.280 37.090,132.640 36.800,199.010 80.690,230.570 128.480,230.660 Z"
       id="path164"
       inkscape:connector-curvature="0"
       sodipodi:nodetypes="zzzzz" />
  </g>
  <g
     transform="matrix(0.160,0,0,0.160,63.140,30.230)"
     style="stroke-width:4.360;stroke-miterlimit:4;stroke-dasharray:none"
     id="left-eye">
    <path
       d="M 293.840,381.900 C 382.850,444.180 384.950,542.220 336.770,632.850 255.920,619.750 127.200,636.290 77.850,654.180 22.450,624 -8.220,483.350 46.090,415.860 100.400,348.380 204.840,319.620 293.840,381.900 Z"
       style="fill:#ffffff;stroke:#000000;stroke-width:6.140;stroke-miterlimit:4;stroke-opacity:1;stroke-dasharray:none"
       id="path3622"
       inkscape:connector-curvature="0"
       sodipodi:nodetypes="ccccc" />
    <g
       transform="translate(57.140,22.860)"
       style="stroke-width:4.360;stroke-miterlimit:4;stroke-dasharray:none"
       clip-path="url(#clipPath2967)"
       id="lens">
      <g
         id="g4403">
        <path
           style="fill:#9d4922;fill-opacity:1;stroke:#000000;stroke-width:6.140;stroke-miterlimit:4;stroke-opacity:1;stroke-dasharray:none"
           d="M 205.380,519.390 C 205.380,534.350 199.530,549.210 189.480,559.790 179.430,570.370 165.310,576.530 151.090,576.530 136.880,576.530 122.760,570.370 112.710,559.790 102.660,549.210 96.800,534.350 96.800,519.390 96.800,504.430 102.660,489.560 112.710,478.980 122.760,468.400 136.880,462.240 151.090,462.240 165.310,462.240 179.430,468.400 189.480,478.980 199.530,489.560 205.380,504.430 205.380,519.390 Z"
           id="iris"
           inkscape:connector-curvature="0" />
        <path
           d="M 168.810,522.490 C 168.810,527.160 166.890,531.810 163.580,535.120 160.270,538.430 155.630,540.350 150.950,540.350 146.270,540.350 141.630,538.430 138.320,535.120 135.020,531.810 133.090,527.160 133.090,522.490 133.090,517.810 135.020,513.160 138.320,509.850 141.630,506.550 146.270,504.620 150.950,504.620 155.630,504.620 160.270,506.550 163.580,509.850 166.890,513.160 168.810,517.810 168.810,522.490 Z"
           style="fill:#000000;fill-opacity:1;stroke:#000000;stroke-width:6.140;stroke-miterlimit:4;stroke-opacity:1;stroke-dasharray:none"
           id="pupil"
           inkscape:connector-curvature="0" />
        <path
           d="M 144.200,490.640 C 144.200,503.350 133.800,513.590 120.970,513.590 108.150,513.590 97.750,503.350 97.750,490.640 97.750,477.990 108.150,467.690 120.970,467.690 133.800,467.690 144.200,477.990 144.200,490.640 Z"
           style="fill:#ffffff;fill-opacity:1;stroke:none"
           id="glare"
           inkscape:connector-curvature="0" />
      </g>
      <path
         style="opacity:0.240;fill:#000000;stroke:#000000;stroke-width:1px;stroke-linecap:butt;stroke-linejoin:miter;stroke-opacity:1"
         d="M -56.360,607.150 -123.770,359.140 221.690,233.460 264.880,344.480 C 264.880,344.480 118.390,254.930 -8.450,334.920 -129.650,420.860 -56.360,607.150 -56.360,607.150 Z"
         id="left-lid-shadow"
         inkscape:connector-curvature="0"
         sodipodi:nodetypes="ccccsc" />
    </g>
  </g>
  <g
     transform="matrix(0.160,0,0,0.160,48.200,30.830)"
     style="stroke-width:4.360;stroke-miterlimit:4;stroke-dasharray:none"
     id="right-eye">
    <use
       transform="matrix(-1,0,0,1,915.870,-3.770)"
       id="use3959"
       x="0"
       y="0"
       width="250"
       height="250"
       xlink:href="#path3622" />
    <g
       clip-path="url(#clipPath4022)"
       id="g4015">
      <use
         transform="translate(546.230,19.300)"
         style="stroke-width:4.360;stroke-miterlimit:4;stroke-dasharray:none"
         id="right-lens"
         x="0"
         y="0"
         width="1"
         height="1"
         xlink:href="#g4403" />
      <path
         style="opacity:0.240;fill:#000000;stroke:#000000;stroke-width:1px;stroke-linecap:butt;stroke-linejoin:miter;stroke-miterlimit:4;stroke-opacity:1;stroke-dasharray:none"
         d="M 513.580,591.920 486.770,273.500 855,248.440 968.230,432.770 C 968.230,432.770 804.350,281.440 677.720,327.930 551.090,374.420 510.420,524.450 513.580,591.920 Z"
         id="right-lid-shadow"
         inkscape:connector-curvature="0"
         sodipodi:nodetypes="cccczc" />
    </g>
  </g>
  <path
     d="M 112.04447,66.470689 C 99.698934,58.574263 88.518762,58.786943 77.925533,61.680517 67.332304,64.57409 62.240344,69.584812 56.476426,76.431959 L 55.48732,74.273746 c 5.949451,-6.242853 10.170893,-11.701442 21.264467,-15.104295 11.093574,-3.402853 24.777663,-2.933746 36.463023,2.736426 z"
     style="fill:#292929;fill-opacity:1;fill-rule:nonzero;stroke-width:1;stroke-miterlimit:108.48400116;stroke-opacity:1;stroke-dasharray:none"
     id="left-eye-brow"
     inkscape:connector-curvature="0"
     sodipodi:nodetypes="czcczcc" />
  <g
     style="stroke-width:1"
     transform="matrix(1.130,0,0,1,-17.270,2.110)"
     id="nose">
    <path
       style="fill:#1a1a1a;stroke:#000000;stroke-width:0.940;stroke-miterlimit:4;stroke-dasharray:none"
       d="M 108.270,150.490 C 110.480,152.590 109.310,152.530 115.130,152.620 120.960,152.730 122.830,151.510 130.200,151.560 137.550,151.620 138.530,153.440 143.620,153.640 148.710,153.840 154.880,151.440 148.720,144.260 155.290,150.540 148.710,154.080 144.790,154.230 140.880,154.380 141.290,155.380 138.660,154.840 136.030,154.300 138.180,152.760 130.250,152.930 122.320,153.100 125.740,154.660 122.290,155.110 118.850,155.540 119.060,153.820 115.010,153.810 110.950,153.800 109.570,153.140 108,150.200 Z"
       id="nose-outline"
       inkscape:connector-curvature="0"
       sodipodi:nodetypes="czzzczzzzzc" />
  </g>
  <use
     transform="matrix(-1,0,0,1,257.380,0.000)"
     id="right-eye-brow"
     x="0"
     y="0"
     width="250"
     height="250"
     xlink:href="#left-eye-brow" />
  <g
     id="mouth">
    <g
       id="mouth-interior"
       clip-path="url(#clipPath-mouth)">
      <rect
         style="fill:#000000;fill-opacity:1;stroke:none"
         y="159.93378"
         x="68.159775"
         height="66.55629"
         width="119.94381"
         id="mouth-background" />
      <path
         d="M 98.340,209.750 C 98.010,189.460 114.230,188.070 130.460,187.400 148.010,186.690 161.920,191.440 161.920,209.750 140.730,209.750 119.540,209.750 98.340,209.750 Z"
         style="fill:#800f08;fill-opacity:1;stroke:none"
         sodipodi:nodetypes="cscc"
         inkscape:connector-curvature="0"
         id="tongue" />
      <g
         style="stroke:#000000;stroke-opacity:1"
         transform="translate(4,-7.970)"
         id="upper-teeth"
         morph="fix-children">
        <rect
           style="fill:#ffffff;fill-opacity:1;stroke:#000000;stroke-width:1.00441658;stroke-opacity:1"
           id="tooth-02"
           width="10.355772"
           height="15.123333"
           x="95.524162"
           y="158.1953"
           ry="1.3245033"
           rx="1.3362287"
           transform="matrix(0.99122501,0.13218537,0,1,0,0)"
           inkscape:transform-center-y="1.3353219" />
        <rect
           style="fill:#ffffff;fill-opacity:1;stroke:#000000;stroke-width:1.00010955;stroke-opacity:1"
           rx="1.3247935"
           ry="1.3245033"
           y="169.93416"
           x="106.3754"
           height="15.123333"
           width="10.267149"
           id="tooth-03"
           transform="matrix(0.99978101,0.02092668,0,1,0,0)" />
        <rect
           style="fill:#ffffff;fill-opacity:1;stroke:#000000;stroke-opacity:1"
           id="tooth-04"
           width="10.2649"
           height="15.123333"
           x="118.35211"
           y="172.32661"
           ry="1.3245033"
           rx="1.3245033" />
        <rect
           style="fill:#ffffff;fill-opacity:1;stroke:#000000;stroke-width:1.00010955;stroke-opacity:1"
           rx="1.3247935"
           ry="1.3245033"
           y="174.98564"
           x="130.38066"
           height="15.123333"
           width="10.267148"
           id="tooth-05"
           transform="matrix(0.99978101,-0.02092669,0,1,0,0)" />
        <rect
           style="fill:#ffffff;fill-opacity:1;stroke:#000000;stroke-width:1.00625432;stroke-opacity:1"
           id="tooth-06"
           width="10.393703"
           height="15.123333"
           x="144.05383"
           y="194.64574"
           ry="1.3245033"
           rx="1.3411231"
           transform="matrix(0.9876076,-0.15694341,0,1,0,0)" />
      </g>
      <g
         style="stroke:#000000;stroke-opacity:1"
         transform="translate(4,26.330)"
         id="lower-teeth">
        <rect
           style="fill:#ffffff;fill-opacity:1;stroke:#000000;stroke-opacity:1"
           rx="1.3245033"
           ry="1.3245033"
           y="172.09084"
           x="94.352112"
           height="15.123333"
           width="10.2649"
           id="tooth-09" />
        <rect
           style="fill:#ffffff;fill-opacity:1;stroke:#000000;stroke-opacity:1"
           id="tooth-10"
           width="10.2649"
           height="15.123333"
           x="106.35211"
           y="172.09084"
           ry="1.3245033"
           rx="1.3245033" />
        <rect
           style="fill:#ffffff;fill-opacity:1;stroke:#000000;stroke-opacity:1"
           rx="1.3245033"
           ry="1.3245033"
           y="172.09084"
           x="118.35211"
           height="15.123333"
           width="10.2649"
           id="tooth-11" />
        <rect
           style="fill:#ffffff;fill-opacity:1;stroke:#000000;stroke-opacity:1"
           id="tooth-12"
           width="10.2649"
           height="15.123333"
           x="130.35211"
           y="172.09084"
           ry="1.3245033"
           rx="1.3245033" />
        <rect
           style="fill:#ffffff;fill-opacity:1;stroke:#000000;stroke-opacity:1"
           rx="1.3245033"
           ry="1.3245033"
           y="172.09084"
           x="142.35211"
           height="15.123333"
           width="10.2649"
           id="tooth-13" />
      </g>
    </g>
    <path
       d="M 178.950,164.650 C 178.650,168.130 168.464,186.977 159.224,193.097 149.974,199.217 145.160,202.880 129.880,203.060 114.600,203.240 104.225,196.470 95.155,189.280 86.095,182.090 76.090,168.490 76.040,164.020 81.290,165.740 83.720,166.600 93.860,167.580 104.010,168.560 110.930,168.580 128.970,168.590 147.010,168.600 152.820,169.330 160.980,168.340 169.150,167.350 171.740,166.200 178.950,164.650 Z"
       style="fill:none;stroke:#000000;stroke-width:1px;stroke-miterlimit:4;stroke-opacity:1"
       id="mouth-outline"
       inkscape:connector-curvature="0"
       sodipodi:nodetypes="czzzczzzcc" />
  </g>
  <g
     style="stroke-width:1;stroke-miterlimit:8;stroke-dasharray:none"
     id="wrinkles">
    <path
       d="m 91.220853,58.392574 c 7.580852,0.479319 13.585897,1.868639 18.577787,4.304426"
       style="fill:none;stroke:#000000;stroke-width:0.5;stroke-linecap:butt;stroke-linejoin:miter;stroke-miterlimit:4;stroke-opacity:1;stroke-dasharray:none"
       sodipodi:nodetypes="cc"
       id="wrinkle-left-brow"
       inkscape:connector-curvature="0" />
    <path
       d="M 55.430,161.740 C 68.342,166.229 80.096,159.296 79.110,146.660"
       style="fill:none;stroke:#000000;stroke-width:0.500;stroke-linecap:butt;stroke-linejoin:miter;stroke-opacity:1;stroke-miterlimit:4;stroke-dasharray:none"
       sodipodi:nodetypes="cc"
       id="wrinkle-left-cheek"
       inkscape:connector-curvature="0" />
    <use
       transform="matrix(-1,0,0,1,257.850,0)"
       style="stroke-width:0.500;stroke-miterlimit:4;stroke-dasharray:none"
       height="250"
       width="250"
       id="wrinkle-right-brow"
       xlink:href="#wrinkle-left-brow"
       y="0"
       x="0" />
    <use
       transform="matrix(-1,0,0,1,257.850,0)"
       style="stroke-width:0.500;stroke-miterlimit:4;stroke-dasharray:none"
       height="250"
       width="250"
       id="wrinkle-right-cheek"
       xlink:href="#wrinkle-left-cheek"
       y="0"
       x="0" />
  </g>
</svg>
