<svg 
version="1.1" viewBox="0 0 250 250" id="emoticon-front-view" inkscape:version="0.48.4 r9939" sodipodi:docname="face_000.svg" width="100%" height="100%" xmlns:inkscape="http://www.inkscape.org/namespaces/inkscape" xmlns:sodipodi="http://sodipodi.sourceforge.net/DTD/sodipodi-0.dtd" xmlns:xlink="http://www.w3.org/1999/xlink" xmlns="http://www.w3.org/2000/svg" xmlns:svg="http://www.w3.org/2000/svg" xmlns:rdf="http://www.w3.org/1999/02/22-rdf-syntax-ns#" xmlns:cc="http://creativecommons.org/ns#" xmlns:dc="http://purl.org/dc/elements/1.1/">
  <metadata id="metadata3099">
    <rdf:RDF>
      <cc:Work rdf:about="">
        <dc:format/>
        <dc:type rdf:resource="http://purl.org/dc/dcmitype/StillImage"/>
        <dc:title/>
      </cc:Work>
    </rdf:RDF>
  </metadata>
  <sodipodi:namedview 
  inkscape:snap-bbox="false" pagecolor="#ffffff" bordercolor="#666666" borderopacity="1" objecttolerance="10" gridtolerance="10" guidetolerance="10" inkscape:pageopacity="0" inkscape:pageshadow="2" inkscape:window-width="1855" inkscape:window-height="1056" id="namedview3097" showgrid="false" inkscape:zoom="3.716" inkscape:cx="77.637244" inkscape:cy="125" inkscape:window-x="1985" inkscape:window-y="24" inkscape:window-maximized="1" inkscape:current-layer="emoticon-front-view" showguides="true" inkscape:guide-bbox="true" inkscape:snap-nodes="false" inkscape:snap-global="false">
</sodipodi:namedview>
  <defs id="defs4">
    <clipPath id="clipPath2967">
      <use 
      transform="translate(-57.14,-22.86)" id="use2969" x="0" y="0" width="1" height="1" xlink:href="#path3622">
</use>
    </clipPath>
    <clipPath id="clipPath4022">
      <use 
      transform="matrix(-1,0,0,1,915.87,-3.77)" id="use5959" x="0" y="0" width="250" height="250" xlink:href="#path3622">
</use>
    </clipPath>
    <clipPath id="clipPath-mouth" clipPathUnits="userSpaceOnUse">
      <use height="250" width="250" id="use-mouth-outline" xlink:href="#mouth-outline" y="0" x="0"/>
    </clipPath>
  </defs>
  <g id="head">
    <path 
    style="fill:#e9c6af;stroke:#000000;stroke-width:1;stroke-opacity:1" d="M 128.48,230.66 C 176.27,230.75 219.01,200.57 219.41,132.64 219.8,64.72 176.76,31.81 126.68,31.53 76.6,31.24 37.38,66.28 37.09,132.64 36.8,199.01 80.69,230.57 128.48,230.66 Z" id="path164" inkscape:connector-curvature="0" sodipodi:nodetypes="zzzzz">
</path>
  </g>
  <g 
  transform="matrix(0.16,0,0,0.16,63.08,35.69)" style="stroke-width:4.36;stroke-miterlimit:4;stroke-dasharray:none" id="left-eye">
    <path 
    d="M 308.9,495.69 C 322.05,523.8 324.88,555.58 317.93,593.98 268.81,602.98 141.1,611.68 74.55,574.48 61.65,568.8 77.57,547.93 112.02,519.49 174.12,474.21 259.87,478.61 308.9,495.69 Z" style="fill:#ffffff;stroke:#000000;stroke-width:6.14;stroke-miterlimit:4;stroke-opacity:1;stroke-dasharray:none" id="path3622" inkscape:connector-curvature="0" sodipodi:nodetypes="ccccc">
</path>
    <g 
    transform="translate(57.14,22.86)" style="stroke-width:4.36;stroke-miterlimit:4;stroke-dasharray:none" clip-path="url(#clipPath2967)" id="lens">
      <g id="g4403">
        <path 
        id="iris" inkscape:connector-curvature="0" d="M 205.380,519.390 C 205.380,534.350 199.530,549.210 189.480,559.790 179.430,570.370 165.310,576.530 151.090,576.530 136.880,576.530 122.760,570.370 112.710,559.790 102.660,549.210 96.800,534.350 96.800,519.390 96.800,504.430 102.660,489.560 112.710,478.980 122.760,468.400 136.880,462.240 151.090,462.240 165.310,462.240 179.430,468.400 189.480,478.980 199.530,489.560 205.380,504.430 205.380,519.390 Z" style="fill:#9d4922;fill-opacity:1;stroke:#000000;stroke-width:6.140;stroke-miterlimit:4;stroke-opacity:1;stroke-dasharray:none">
</path>
        <path 
        id="pupil" inkscape:connector-curvature="0" style="fill:#000000;fill-opacity:1;stroke:#000000;stroke-width:6.140;stroke-miterlimit:4;stroke-opacity:1;stroke-dasharray:none" d="M 168.810,522.490 C 168.810,527.160 166.890,531.810 163.580,535.120 160.270,538.430 155.630,540.350 150.950,540.350 146.270,540.350 141.630,538.430 138.320,535.120 135.020,531.810 133.090,527.160 133.090,522.490 133.090,517.810 135.020,513.160 138.320,509.850 141.630,506.550 146.270,504.620 150.950,504.620 155.630,504.620 160.270,506.550 163.580,509.850 166.890,513.160 168.810,517.810 168.810,522.490 Z">
</path>
        <path 
        d="M 142.85,509.49 C 142.85,513.82 139.3,517.33 134.92,517.33 130.54,517.33 126.98,513.82 126.98,509.49 126.98,505.16 130.54,501.65 134.92,501.65 139.3,501.65 142.85,505.16 142.85,509.49 Z" style="fill:#ffffff;fill-opacity:1;stroke:none" id="glare" inkscape:connector-curvature="0">
</path>
      </g>
      <path 
      style="opacity:0.24;fill:#000000;stroke:#000000;stroke-width:1px;stroke-linecap:butt;stroke-linejoin:miter;stroke-opacity:1" d="M -5.86,552.1 -11.18,407.57 305.31,412.27 307.22,489.4 C 307.22,489.4 222.9,470.97 153.1,477.65 76.47,484.99 -5.86,552.1 -5.86,552.1 Z" id="left-lid-shadow" inkscape:connector-curvature="0" sodipodi:nodetypes="ccccsc">
</path>
</g>
</g>
  <g 
  transform="matrix(0.16,0,0,0.16,46.51,36.3)" style="stroke-width:4.36;stroke-miterlimit:4;stroke-dasharray:none" id="right-eye">
    <use 
    transform="matrix(-1,0,0,1,915.87,0)" id="use3959" x="0" y="0" width="250" height="250" xlink:href="#path3622">
</use>
    <g clip-path="url(#clipPath4022)" id="g4015">
      <use 
      transform="translate(555.67,18.82)" style="stroke-width:4.36;stroke-miterlimit:4;stroke-dasharray:none" id="right-lens" x="0" y="0" width="1" height="1" xlink:href="#g4403">
</use>
      <path 
      style="opacity:0.24;fill:#000000;stroke:#000000;stroke-width:1px;stroke-linecap:butt;stroke-linejoin:miter;stroke-miterlimit:4;stroke-opacity:1;stroke-dasharray:none" d="M 544.62,581.57 506.18,515.68 710.91,412.76 841.14,520.94 C 841.14,520.94 701.45,476.36 639.41,502.98 577.38,529.61 558,557.56 544.62,581.57 Z" id="right-lid-shadow" inkscape:connector-curvature="0" sodipodi:nodetypes="cccczc">
</path>
    </g>
</g>
  <path 
  d="M 113.8,103.81 C 109.25,102.62 98.31,98.75 91.07,98.31 83.83,97.87 75.79,99.56 68.46,106.36 L 66.69,106.3 C 72.87,101.21 80.02,96.72 89.7,95.41 99.38,94.1 104.54,95.5 113.96,98.37 Z" style="fill:#292929;fill-opacity:1;fill-rule:nonzero;stroke:4;stroke-width:1;stroke-miterlimit:113.96;stroke-opacity:98.37;stroke-dasharray:none" id="left-eye-brow" inkscape:connector-curvature="0" sodipodi:nodetypes="czcczcc">
</path>
  <g style="stroke-width:1" transform="matrix(1.13,0,0,1,-17.27,2.11)" id="nose">
    <path 
    style="fill:#1a1a1a;stroke:#000000;stroke-width:0.94;stroke-miterlimit:4;stroke-dasharray:none" d="M 115.15,149.36 C 111.84,155.01 114.69,159.56 117.56,159.87 120.43,160.17 125.39,157.75 130.68,157.78 135.98,157.8 142.34,161.9 143.65,155.34 144.96,148.78 142.44,147.05 141.2,133.05 142.53,147.38 148.29,148.31 148.95,156.26 149.6,164.21 144.68,161.35 139.25,161.33 133.81,161.31 137.15,162.72 130.79,162.53 124.44,162.34 127.74,160.8 123.15,160.39 118.57,159.97 117.86,161.6 115.23,161.44 112.6,161.29 110.65,156.83 115.15,149.36 Z" id="nose-outline" inkscape:connector-curvature="0" sodipodi:nodetypes="czzzczzzzzc">
</path>
  </g>
  <use 
  id="right-eye-brow" x="0" y="0" width="250" height="250" xlink:href="#left-eye-brow" transform="matrix(-1,0,0,1,257,0)">
</use>
  <g id="mouth">
    <g id="mouth-interior" clip-path="url(#clipPath-mouth)">
      <rect 
      style="fill:#000000;fill-opacity:1;stroke:none" y="159.93378" x="68.159775" height="66.55629" width="119.94381" id="mouth-background">
</rect>
      <path 
      d="M 98.34,211.42 C 98.01,191.12 114.23,189.74 130.46,189.07 148.01,188.36 161.92,193.11 161.92,211.42 140.73,211.42 119.54,211.42 98.34,211.42 Z" style="fill:#800f08;fill-opacity:1;stroke:none" sodipodi:nodetypes="cscc" inkscape:connector-curvature="0" id="tongue">
</path>
      <g 
      style="stroke:#000000;stroke-opacity:1" transform="translate(4,-1.01)" id="upper-teeth" morph="fix-children">
        <rect 
        style="fill:#ffffff;fill-opacity:1;stroke:#000000;stroke-width:1.00441658;stroke-opacity:1" id="tooth-02" width="10.355772" height="15.123333" x="95.524162" y="158.1953" ry="1.3245033" rx="1.3362287" transform="matrix(0.99122501,0.13218537,0,1,0,0)" inkscape:transform-center-y="1.3353219">
</rect>
        <rect 
        style="fill:#ffffff;fill-opacity:1;stroke:#000000;stroke-width:1.00010955;stroke-opacity:1" rx="1.3247935" ry="1.3245033" y="169.93416" x="106.3754" height="15.123333" width="10.267149" id="tooth-03" transform="matrix(0.99978101,0.02092668,0,1,0,0)">
</rect>
        <rect 
        style="fill:#ffffff;fill-opacity:1;stroke:#000000;stroke-opacity:1" id="tooth-04" width="10.2649" height="15.123333" x="118.35211" y="172.32661" ry="1.3245033" rx="1.3245033">
</rect>
        <rect 
        style="fill:#ffffff;fill-opacity:1;stroke:#000000;stroke-width:1.00010955;stroke-opacity:1" rx="1.3247935" ry="1.3245033" y="174.98564" x="130.38066" height="15.123333" width="10.267148" id="tooth-05" transform="matrix(0.99978101,-0.02092669,0,1,0,0)">
</rect>
        <rect 
        style="fill:#ffffff;fill-opacity:1;stroke:#000000;stroke-width:1.00625432;stroke-opacity:1" id="tooth-06" width="10.393703" height="15.123333" x="144.05383" y="194.64574" ry="1.3245033" rx="1.3411231" transform="matrix(0.9876076,-0.15694341,0,1,0,0)">
</rect>
</g>
      <g style="stroke:#000000;stroke-opacity:1" transform="translate(4,22)" id="lower-teeth">
        <rect 
        style="fill:#ffffff;fill-opacity:1;stroke:#000000;stroke-opacity:1" rx="1.3245033" ry="1.3245033" y="172.09084" x="94.352112" height="15.123333" width="10.2649" id="tooth-09">
</rect>
        <rect 
        style="fill:#ffffff;fill-opacity:1;stroke:#000000;stroke-opacity:1" id="tooth-10" width="10.2649" height="15.123333" x="106.35211" y="172.09084" ry="1.3245033" rx="1.3245033">
</rect>
        <rect 
        style="fill:#ffffff;fill-opacity:1;stroke:#000000;stroke-opacity:1" rx="1.3245033" ry="1.3245033" y="172.09084" x="118.35211" height="15.123333" width="10.2649" id="tooth-11">
</rect>
        <rect 
        style="fill:#ffffff;fill-opacity:1;stroke:#000000;stroke-opacity:1" id="tooth-12" width="10.2649" height="15.123333" x="130.35211" y="172.09084" ry="1.3245033" rx="1.3245033">
</rect>
        <rect 
        style="fill:#ffffff;fill-opacity:1;stroke:#000000;stroke-opacity:1" rx="1.3245033" ry="1.3245033" y="172.09084" x="142.35211" height="15.123333" width="10.2649" id="tooth-13">
</rect>
      </g>
    </g>
    <path 
    d="M 168.15,186.6 C 166.23,189.6 161.7,191.91 154.55,193.89 147.4,195.87 141,196.38 129.8,196.36 118.6,196.34 112.8,195.75 104.4,193.89 96,192.03 89.69,188.66 88.75,186.46 93.25,185.32 98.75,184.82 104.4,184.91 110.05,185.01 120.76,185.02 129.44,184.88 138.11,184.74 146.95,184.36 153.6,184.88 160.25,185.39 164.48,185.49 168.15,186.6 Z" style="fill:none;stroke:#000000;stroke-width:1px;stroke-miterlimit:4;stroke-opacity:1" id="mouth-outline" inkscape:connector-curvature="0" sodipodi:nodetypes="czzzczzzcc">
</path>
  </g>
  <g style="stroke-width:0.5;stroke-miterlimit:4;stroke-dasharray:none" id="wrinkles">
    <path 
    d="M 119.21,96.34 C 120.63,99.42 120.04,102.77 119.21,104.14" style="fill:none;stroke:#000000;stroke-width:0.5;stroke-linecap:butt;stroke-linejoin:miter;stroke-miterlimit:4;stroke-opacity:1;stroke-dasharray:none" sodipodi:nodetypes="cc" id="wrinkle-left-brow" inkscape:connector-curvature="0">
</path>
    <path 
    d="M 83.69,180.57 C 86.37,176.95 88.45,173.13 95.26,170.88" style="fill:none;stroke:#000000;stroke-width:0.5;stroke-linecap:butt;stroke-linejoin:miter;stroke-opacity:1;stroke-miterlimit:4;stroke-dasharray:none" sodipodi:nodetypes="cc" id="wrinkle-left-cheek" inkscape:connector-curvature="0">
</path>
    <use 
    height="250" width="250" id="wrinkle-right-brow" xlink:href="#wrinkle-left-brow" y="0" x="0" style="stroke-width:0.500;stroke-miterlimit:4;stroke-dasharray:none" transform="matrix(-1,0,0,1,257,0)">
</use>
    <use 
    height="250" width="250" id="wrinkle-right-cheek" xlink:href="#wrinkle-left-cheek" y="0" x="0" style="stroke-width:0.500;stroke-miterlimit:4;stroke-dasharray:none" transform="matrix(-1,0,0,1,257,0)">
</use>
  </g>
</svg>
