<svg 
height="100%" width="100%" sodipodi:docname="face_000.svg" inkscape:version="0.48.4 r9939" id="emoticon-front-view" viewBox="0 0 250 250" version="1.1" xmlns:dc="http://purl.org/dc/elements/1.1/" xmlns:cc="http://creativecommons.org/ns#" xmlns:rdf="http://www.w3.org/1999/02/22-rdf-syntax-ns#" xmlns:svg="http://www.w3.org/2000/svg" xmlns="http://www.w3.org/2000/svg" xmlns:xlink="http://www.w3.org/1999/xlink" xmlns:sodipodi="http://sodipodi.sourceforge.net/DTD/sodipodi-0.dtd" xmlns:inkscape="http://www.inkscape.org/namespaces/inkscape">
  <metadata id="metadata3099">
    <rdf:RDF>
      <cc:Work rdf:about="">
        <dc:format/>
        <dc:type rdf:resource="http://purl.org/dc/dcmitype/StillImage"/>
        <dc:title/>
      </cc:Work>
    </rdf:RDF>
  </metadata>
  <sodipodi:namedview 
  inkscape:snap-global="false" inkscape:snap-nodes="false" inkscape:guide-bbox="true" showguides="true" inkscape:current-layer="emoticon-front-view" inkscape:window-maximized="1" inkscape:window-y="24" inkscape:window-x="1985" inkscape:cy="125" inkscape:cx="77.637244" inkscape:zoom="3.716" showgrid="false" id="namedview3097" inkscape:window-height="1056" inkscape:window-width="1855" inkscape:pageshadow="2" inkscape:pageopacity="0" guidetolerance="10" gridtolerance="10" objecttolerance="10" borderopacity="1" bordercolor="#666666" pagecolor="#ffffff" inkscape:snap-bbox="false">
</sodipodi:namedview>
  <defs id="defs4">
    <linearGradient id="linearGradient5745">
      <stop style="stop-color:#f4f015;stop-opacity:1" offset="0" id="stop5747"/>
      <stop style="stop-color:#f68614;stop-opacity:1" offset="1" id="stop5749"/>
    </linearGradient>
    <linearGradient id="linearGradient2823">
      <stop style="stop-color:#000000;stop-opacity:1" offset="0" id="stop2825"/>
      <stop style="stop-color:#6f0a5a;stop-opacity:1" offset="1" id="stop2827"/>
    </linearGradient>
    <clipPath id="clipPath2967">
      <use 
      transform="translate(-57.140,-22.860)" xlink:href="#path3622" height="1" width="1" y="0" x="0" id="use2969">
</use>
    </clipPath>
    <clipPath id="clipPath4022">
      <use 
      transform="matrix(-1,0,0,1,915.870,-3.770)" xlink:href="#path3622" height="250" width="250" y="0" x="0" id="use5959">
</use>
    </clipPath>
    <radialGradient 
    spreadMethod="pad" gradientTransform="matrix(98.09029,121.52782,-104.45905,83.940949,1881.611,1722.6769)" gradientUnits="userSpaceOnUse" xlink:href="#linearGradient5745" id="radialGradient5694" fy="2.7052789" fx="-15.37231" r="1" cy="2.7052789" cx="-15.37231">
</radialGradient>
    <linearGradient 
    gradientTransform="translate(37.463072,-25.351165)" gradientUnits="userSpaceOnUse" xlink:href="#linearGradient2823" id="irisGradient" y2="606.46576" x2="138.57143" y1="488.07648" x1="107.14286">
</linearGradient>
    <clipPath clipPathUnits="userSpaceOnUse" id="clipPath-mouth">
      <use x="0" y="0" xlink:href="#mouth-outline" id="use-mouth-outline" width="250" height="250"/>
    </clipPath>
  </defs>
  <g id="head">
    <path 
    style="fill:#e9c6af;stroke:#000000;stroke-width:1;stroke-opacity:1" d="M 128.480,230.660 C 176.270,230.750 219.010,200.570 219.410,132.640 219.790,64.720 176.760,31.810 126.680,31.520 76.600,31.240 37.380,66.280 37.090,132.650 36.800,199.010 80.690,230.570 128.480,230.660 Z" sodipodi:nodetypes="zzzzz" inkscape:connector-curvature="0" id="path164">
</path>
  </g>
  <g 
  transform="matrix(0.160,0,0,0.160,62.440,33.370)" style="stroke-width:4.360;stroke-miterlimit:4;stroke-dasharray:none" id="left-eye">
    <path 
    d="M 212.380,475.490 C 268.410,487.280 321.290,545.230 322.720,588.480 259.800,589.590 146.300,593.330 89.550,589.430 37.100,589.190 20.520,541.120 56.650,501.740 92.780,462.360 156.340,463.700 212.380,475.490 Z" style="fill:#ffffff;stroke:#000000;stroke-width:6.140;stroke-miterlimit:4;stroke-opacity:1;stroke-dasharray:none" sodipodi:nodetypes="ccccc" inkscape:connector-curvature="0" id="path3622">
</path>
    <g 
    transform="translate(57.140,22.860)" style="stroke-width:4.360;stroke-miterlimit:4;stroke-dasharray:none" id="lens" clip-path="url(#clipPath2967)">
      <g id="g4403">
        <path 
        style="fill:#9d4922;fill-opacity:1;stroke:#000000;stroke-width:6.140;stroke-miterlimit:4;stroke-opacity:1;stroke-dasharray:none" d="M 205.380,519.390 C 205.380,534.350 199.530,549.210 189.480,559.790 179.430,570.370 165.310,576.530 151.090,576.530 136.880,576.530 122.760,570.370 112.710,559.790 102.660,549.210 96.800,534.350 96.800,519.390 96.800,504.430 102.660,489.560 112.710,478.980 122.760,468.400 136.880,462.240 151.090,462.240 165.310,462.240 179.430,468.400 189.480,478.980 199.530,489.560 205.380,504.430 205.380,519.390 Z" inkscape:connector-curvature="0" id="iris">
</path>
        <path 
        d="M 168.810,522.490 C 168.810,527.160 166.890,531.810 163.580,535.120 160.270,538.430 155.630,540.350 150.950,540.350 146.270,540.350 141.630,538.430 138.320,535.120 135.020,531.810 133.090,527.160 133.090,522.490 133.090,517.810 135.020,513.160 138.320,509.850 141.630,506.550 146.270,504.620 150.950,504.620 155.630,504.620 160.270,506.550 163.580,509.850 166.890,513.160 168.810,517.810 168.810,522.490 Z" style="fill:#000000;fill-opacity:1;stroke:#000000;stroke-width:6.140;stroke-miterlimit:4;stroke-opacity:1;stroke-dasharray:none" inkscape:connector-curvature="0" id="pupil">
</path>
        <path 
        d="M 137.510,508.860 C 137.510,514.410 132.950,518.900 127.350,518.900 121.740,518.900 117.190,514.410 117.190,508.860 117.190,503.320 121.740,498.820 127.350,498.820 132.950,498.820 137.510,503.320 137.510,508.860 Z" style="fill:#ffffff;fill-opacity:1;stroke:none" inkscape:connector-curvature="0" id="glare">
</path>
      </g>
      <path 
      style="opacity:0.240;fill:#000000;stroke:#000000;stroke-width:1px;stroke-linecap:butt;stroke-linejoin:miter;stroke-opacity:1" d="M -70.010,566.580 -75.340,422.060 305.310,412.270 307.220,489.400 C 307.220,489.400 144.260,452.340 74.450,459.030 -2.180,466.370 -70.010,566.580 -70.010,566.580 Z" sodipodi:nodetypes="ccccsc" inkscape:connector-curvature="0" id="left-lid-shadow">
</path>
</g>
</g>
  <g 
  transform="matrix(0.160,0,0,0.160,44.870,33.980)" style="stroke-width:4.360;stroke-miterlimit:4;stroke-dasharray:none" id="right-eye">
    <use 
    transform="matrix(-1,0,0,1,915.870,-3.770)" xlink:href="#path3622" height="250" width="250" y="0" x="0" id="use3959">
</use>
    <g id="g4015" clip-path="url(#clipPath4022)">
      <use 
      transform="translate(564.190,19.820)" style="stroke-width:4.360;stroke-miterlimit:4;stroke-dasharray:none" xlink:href="#g4403" height="1" width="1" y="0" x="0" id="right-lens">
</use>
      <path 
      style="opacity:0.240;fill:#000000;stroke:#000000;stroke-width:1px;stroke-linecap:butt;stroke-linejoin:miter;stroke-miterlimit:4;stroke-opacity:1;stroke-dasharray:none" d="M 561.180,581.570 567.480,432.840 929.600,399.510 942.200,492.770 C 942.200,492.770 829.210,453.200 735.710,483.140 642.190,513.080 599.420,582.410 561.180,581.570 Z" sodipodi:nodetypes="cccczc" inkscape:connector-curvature="0" id="right-lid-shadow">
</path>
    </g>
</g>
  <path 
  d="M 119.330,113.480 C 103.590,102.370 103.060,100.230 87.240,98.170 75.810,97.130 71.950,98.050 63.200,98.730 L 62.950,95.870 C 71.120,96.400 73.320,95.880 86.610,96.290 99.290,97.440 108.440,102.670 119.700,103.900 Z" style="fill:#292929;fill-opacity:1;fill-rule:nonzero;stroke:4;stroke-width:1;stroke-miterlimit:119.700;stroke-opacity:103.900;stroke-dasharray:none" sodipodi:nodetypes="czcczcc" inkscape:connector-curvature="0" id="left-eye-brow">
</path>
  <g style="stroke-width:1" transform="matrix(1.130,0,0,1,-17.270,2.110)" id="nose">
    <path 
    style="fill:#1a1a1a;stroke:#000000;stroke-width:0.940;stroke-miterlimit:4;stroke-dasharray:none" d="M 112.860,149.740 C 111.390,154.200 112.900,157.220 116.750,157.450 120.610,157.690 124.810,154.370 130.790,154.410 136.770,154.440 141.470,158.670 143.720,154.860 145.980,151.030 146.920,153.700 140.870,137.070 145.950,150.980 148.960,150.930 147.760,155.670 146.550,160.420 143.660,159.490 138.900,159.470 134.140,159.450 135.630,159.490 130.610,159.330 125.600,159.180 126.920,159.100 122.710,158.980 118.510,158.840 117.570,159.310 114.810,159.030 112.050,158.750 110.290,155.600 112.770,149.640 Z" sodipodi:nodetypes="czzzczzzzzc" inkscape:connector-curvature="0" id="nose-outline">
</path>
  </g>
  <use 
  transform="matrix(-1,-0.010,-0.010,1,257.420,0.910)" xlink:href="#left-eye-brow" height="250" width="250" y="0" x="0" id="right-eye-brow">
</use>
  <g id="mouth">
    <g clip-path="url(#clipPath-mouth)" id="mouth-interior">
      <rect 
      style="fill:#000000;fill-opacity:1;stroke:none" id="mouth-background" width="119.94381" height="66.55629" x="68.159775" y="159.93378">
</rect>
      <path 
      d="M 98.340,211.420 C 98.010,191.120 114.230,189.740 130.460,189.070 148.010,188.360 161.920,193.110 161.920,211.420 140.730,211.420 119.540,211.420 98.340,211.420 Z" style="fill:#800f08;fill-opacity:1;stroke:none" id="tongue" inkscape:connector-curvature="0" sodipodi:nodetypes="cscc">
</path>
      <g 
      style="stroke:#000000;stroke-opacity:1" transform="translate(4,-2.300)" morph="fix-children" id="upper-teeth">
        <rect 
        inkscape:transform-center-y="1.3353219" transform="matrix(0.99122501,0.13218537,0,1,0,0)" rx="1.3362287" ry="1.3245033" y="158.1953" x="95.524162" height="15.123333" width="10.355772" id="tooth-02" style="fill:#ffffff;fill-opacity:1;stroke:#000000;stroke-width:1.00441658;stroke-opacity:1">
</rect>
        <rect 
        transform="matrix(0.99978101,0.02092668,0,1,0,0)" id="tooth-03" width="10.267149" height="15.123333" x="106.3754" y="169.93416" ry="1.3245033" rx="1.3247935" style="fill:#ffffff;fill-opacity:1;stroke:#000000;stroke-width:1.00010955;stroke-opacity:1">
</rect>
        <rect 
        rx="1.3245033" ry="1.3245033" y="172.32661" x="118.35211" height="15.123333" width="10.2649" id="tooth-04" style="fill:#ffffff;fill-opacity:1;stroke:#000000;stroke-opacity:1">
</rect>
        <rect 
        transform="matrix(0.99978101,-0.02092669,0,1,0,0)" id="tooth-05" width="10.267148" height="15.123333" x="130.38066" y="174.98564" ry="1.3245033" rx="1.3247935" style="fill:#ffffff;fill-opacity:1;stroke:#000000;stroke-width:1.00010955;stroke-opacity:1">
</rect>
        <rect 
        transform="matrix(0.9876076,-0.15694341,0,1,0,0)" rx="1.3411231" ry="1.3245033" y="194.64574" x="144.05383" height="15.123333" width="10.393703" id="tooth-06" style="fill:#ffffff;fill-opacity:1;stroke:#000000;stroke-width:1.00625432;stroke-opacity:1">
</rect>
</g>
      <g style="stroke:#000000;stroke-opacity:1" transform="translate(4,22)" id="lower-teeth">
        <rect 
        style="fill:#ffffff;fill-opacity:1;stroke:#000000;stroke-opacity:1" id="tooth-09" width="10.2649" height="15.123333" x="94.352112" y="172.09084" ry="1.3245033" rx="1.3245033">
</rect>
        <rect 
        style="fill:#ffffff;fill-opacity:1;stroke:#000000;stroke-opacity:1" rx="1.3245033" ry="1.3245033" y="172.09084" x="106.35211" height="15.123333" width="10.2649" id="tooth-10">
</rect>
        <rect 
        style="fill:#ffffff;fill-opacity:1;stroke:#000000;stroke-opacity:1" id="tooth-11" width="10.2649" height="15.123333" x="118.35211" y="172.09084" ry="1.3245033" rx="1.3245033">
</rect>
        <rect 
        style="fill:#ffffff;fill-opacity:1;stroke:#000000;stroke-opacity:1" rx="1.3245033" ry="1.3245033" y="172.09084" x="130.35211" height="15.123333" width="10.2649" id="tooth-12">
</rect>
        <rect 
        style="fill:#ffffff;fill-opacity:1;stroke:#000000;stroke-opacity:1" id="tooth-13" width="10.2649" height="15.123333" x="142.35211" y="172.09084" ry="1.3245033" rx="1.3245033">
</rect>
      </g>
    </g>
    <path 
    d="M 178.780,176.450 C 178.250,181.110 173.750,187.470 163.510,190.940 153.260,194.420 151.410,195.150 130.220,195.330 109.020,195.510 104.050,193.980 94.220,190.250 84.390,186.520 77.080,179.250 78.020,177.430 83.100,179.930 88.860,181.130 95.310,182.220 101.760,183.310 113.810,183.160 129.980,183.020 146.900,182.860 156.610,183.040 162.810,181.850 169.010,180.660 174.190,178.570 178.780,176.450 Z" style="fill:none;stroke:#000000;stroke-width:1px;stroke-miterlimit:4;stroke-opacity:1" sodipodi:nodetypes="czzzczzzcc" inkscape:connector-curvature="0" id="mouth-outline">
</path>
  </g>
  <g style="stroke-width:1;stroke-miterlimit:8;stroke-dasharray:none" id="wrinkles">
    <path 
    d="M 120.280,96.880 C 124.290,100.640 124.150,114.360 121.100,121.640" style="fill:none;stroke:#000000;stroke-width:0.500;stroke-linecap:butt;stroke-linejoin:miter;stroke-miterlimit:4;stroke-opacity:1;stroke-dasharray:none" inkscape:connector-curvature="0" id="wrinkle-left-brow" sodipodi:nodetypes="cc">
</path>
    <path 
    d="M 60.820,177.070 C 72.630,184.310 85.070,170.820 78.040,160.380" style="fill:none;stroke:#000000;stroke-width:0.500;stroke-linecap:butt;stroke-linejoin:miter;stroke-opacity:1;stroke-miterlimit:4;stroke-dasharray:none" inkscape:connector-curvature="0" id="wrinkle-left-cheek" sodipodi:nodetypes="cc">
</path>
    <use 
    transform="matrix(-1,0,0,1,257.040,0)" style="stroke-width:0.500;stroke-miterlimit:4;stroke-dasharray:none" x="0" y="0" xlink:href="#wrinkle-left-brow" id="wrinkle-right-brow" width="250" height="250">
</use>
    <use 
    transform="matrix(-1,0,0,1,257.850,0)" style="stroke-width:0.500;stroke-miterlimit:4;stroke-dasharray:none" x="0" y="0" xlink:href="#wrinkle-left-cheek" id="wrinkle-right-cheek" width="250" height="250">
</use>
  </g>
</svg>
