<svg 
height="100%" width="100%" sodipodi:docname="face_000.svg" inkscape:version="0.48.4 r9939" id="emoticon-front-view" viewBox="0 0 250 250" version="1.1" xmlns:inkscape="http://www.inkscape.org/namespaces/inkscape" xmlns:sodipodi="http://sodipodi.sourceforge.net/DTD/sodipodi-0.dtd" xmlns:xlink="http://www.w3.org/1999/xlink" xmlns="http://www.w3.org/2000/svg" xmlns:svg="http://www.w3.org/2000/svg" xmlns:rdf="http://www.w3.org/1999/02/22-rdf-syntax-ns#" xmlns:cc="http://creativecommons.org/ns#" xmlns:dc="http://purl.org/dc/elements/1.1/">
  <metadata id="metadata3099">
    <rdf:RDF>
      <cc:Work rdf:about="">
        <dc:format/>
        <dc:type rdf:resource="http://purl.org/dc/dcmitype/StillImage"/>
        <dc:title/>
      </cc:Work>
    </rdf:RDF>
  </metadata>
  <sodipodi:namedview 
  inkscape:snap-global="false" inkscape:snap-nodes="false" inkscape:guide-bbox="true" showguides="true" inkscape:current-layer="mouth-interior" inkscape:window-maximized="1" inkscape:window-y="24" inkscape:window-x="1985" inkscape:cy="118.90579" inkscape:cx="128.2506" inkscape:zoom="4.6419366" showgrid="false" id="namedview3097" inkscape:window-height="1056" inkscape:window-width="1855" inkscape:pageshadow="2" inkscape:pageopacity="0" guidetolerance="10" gridtolerance="10" objecttolerance="10" borderopacity="1" bordercolor="#666666" pagecolor="#ffffff" inkscape:snap-bbox="false">
    <sodipodi:guide id="guide3013" position="129.80132,233.11258" orientation="1,0"/>
    <sodipodi:guide id="guide3016" position="96.02649,131.45695" orientation="1,0"/>
    <sodipodi:guide id="guide3018" position="159.27152,225.16556" orientation="1,0"/>
    <sodipodi:guide id="guide3020" position="187.08609,126.82119" orientation="0,1"/>
    <sodipodi:guide orientation="0,1" position="151.92803,65.672732" id="guide3045"/>
</sodipodi:namedview>
  <defs id="defs4">
    <linearGradient id="linearGradient5745">
      <stop style="stop-color:#f4c815;stop-opacity:1" offset="0" id="stop5747"/>
      <stop style="stop-color:#cc0000;stop-opacity:1" offset="1" id="stop5749"/>
    </linearGradient>
    <linearGradient id="linearGradient2823">
      <stop style="stop-color:#000000;stop-opacity:1" offset="0" id="stop2825"/>
      <stop style="stop-color:#780023;stop-opacity:1" offset="1" id="stop2827"/>
    </linearGradient>
    <clipPath id="clipPath2967">
      <use 
      transform="translate(-47.20,-108.92)" xlink:href="#path3622" height="1" width="1" y="0" x="0" id="use2969">
</use>
    </clipPath>
    <clipPath id="clipPath4022">
      <use 
      transform="matrix(-1,0,0,1,905.93,-89.83)" xlink:href="#path3622" height="250" width="250" y="0" x="0" id="use5959">
</use>
    </clipPath>
    <radialGradient 
    spreadMethod="pad" gradientTransform="matrix(98.09029,121.52782,-104.45905,83.940949,1881.611,1722.6769)" gradientUnits="userSpaceOnUse" xlink:href="#linearGradient5745" id="radialGradient5694" fy="2.7052789" fx="-15.37231" r="1" cy="2.7052789" cx="-15.37231">
</radialGradient>
    <linearGradient 
    gradientTransform="translate(37.463072,-25.351165)" gradientUnits="userSpaceOnUse" xlink:href="#linearGradient2823" id="irisGradient" y2="606.46576" x2="138.57143" y1="488.07648" x1="107.14286">
</linearGradient>
    <clipPath clipPathUnits="userSpaceOnUse" id="clipPath-mouth">
      <use x="0" y="0" xlink:href="#mouth-outline" id="use-mouth-outline" width="250" height="250"/>
    </clipPath>
  </defs>
  <g id="head">
    <path 
    style="fill:#e9c6af;stroke:#000000;stroke-width:1;stroke-opacity:1" d="M 128.48,230.66 C 176.27,230.75 219.01,200.57 219.41,132.64 219.80,64.72 176.76,31.81 126.68,31.53 76.60,31.24 37.38,66.28 37.09,132.64 36.80,199.01 80.69,230.57 128.48,230.66 Z" sodipodi:nodetypes="zzzzz" inkscape:connector-curvature="0" id="path164">
</path>
  </g>
  <g 
  transform="matrix(0.16,0,0,0.16,63.60,33.16)" style="stroke-width:4.36;stroke-miterlimit:4;stroke-dasharray:none" id="left-eye">
    <path 
    d="M 295.50,616.68 C 299.09,673.17 235.88,695.32 221.54,708.51 165.05,692.32 60.97,659.73 76.79,644.84 87.45,670.70 140.46,647.75 174.41,631.43 241.07,562.12 246.80,611.20 295.50,616.68 Z" style="fill:#ffffff;stroke:#000000;stroke-width:6.14;stroke-miterlimit:4;stroke-opacity:1;stroke-dasharray:none" sodipodi:nodetypes="ccccc" inkscape:connector-curvature="0" id="path3622">
</path>
    <g 
    transform="translate(47.20,108.92)" style="stroke-width:4.36;stroke-miterlimit:4;stroke-dasharray:none" id="lens" clip-path="url(#clipPath2967)">
      <g id="g4403">
        <path 
        style="fill:#9d4922;fill-opacity:1;stroke:#000000;stroke-width:6.14;stroke-miterlimit:4;stroke-opacity:1;stroke-dasharray:none" d="M 205.38,519.39 C 205.38,534.35 199.53,549.21 189.48,559.79 179.43,570.37 165.31,576.53 151.09,576.53 136.88,576.53 122.76,570.37 112.71,559.79 102.66,549.21 96.80,534.35 96.80,519.39 96.80,504.43 102.66,489.56 112.71,478.98 122.76,468.40 136.88,462.24 151.09,462.24 165.31,462.24 179.43,468.40 189.48,478.98 199.53,489.56 205.38,504.43 205.38,519.39 Z" inkscape:connector-curvature="0" id="iris">
</path>
        <path 
        d="M 168.82,522.49 C 168.82,527.16 166.89,531.81 163.58,535.12 160.27,538.43 155.63,540.35 150.95,540.35 146.27,540.35 141.63,538.43 138.32,535.12 135.02,531.81 133.09,527.16 133.09,522.49 133.09,517.81 135.02,513.16 138.32,509.85 141.63,506.55 146.27,504.62 150.95,504.62 155.63,504.62 160.27,506.55 163.58,509.85 166.89,513.16 168.82,517.81 168.82,522.49 Z" style="fill:#000000;fill-opacity:1;stroke:#000000;stroke-width:6.14;stroke-miterlimit:4;stroke-opacity:1;stroke-dasharray:none" inkscape:connector-curvature="0" id="pupil">
</path>
        <path 
        d="M 129.16,517.67 C 129.16,518.85 128.18,519.81 126.98,519.81 125.79,519.81 124.82,518.85 124.82,517.67 124.82,516.48 125.79,515.52 126.98,515.52 128.18,515.52 129.16,516.48 129.16,517.67 Z" style="fill:#ffffff;fill-opacity:1;stroke:none" inkscape:connector-curvature="0" id="glare">
</path>
      </g>
      <path 
      style="opacity:0.24;fill:#000000;stroke:#000000;stroke-width:1px;stroke-linecap:butt;stroke-linejoin:miter;stroke-opacity:1" d="M -60.66,486.17 -11.18,407.57 305.31,412.27 310.63,484.30 C 336.95,541.33 211.49,529.69 112.72,542.59 36.38,552.55 -60.66,486.17 -60.66,486.17 Z" sodipodi:nodetypes="ccccsc" inkscape:connector-curvature="0" id="left-lid-shadow">
</path>
</g>
</g>
  <g 
  transform="matrix(0.16,0,0,0.16,44.92,47.55)" style="stroke-width:4.36;stroke-miterlimit:4;stroke-dasharray:none" id="right-eye">
    <use 
    transform="matrix(-1,0,0,1,905.93,-89.83)" xlink:href="#path3622" height="250" width="250" y="0" x="0" id="use3959">
</use>
    <g id="g4015" clip-path="url(#clipPath4022)">
      <use 
      transform="translate(565.11,17.94)" style="stroke-width:4.36;stroke-miterlimit:4;stroke-dasharray:none" xlink:href="#g4403" height="1" width="1" y="0" x="0" id="right-lens">
</use>
      <path 
      style="opacity:0.24;fill:#000000;stroke:#000000;stroke-width:1px;stroke-linecap:butt;stroke-linejoin:miter;stroke-miterlimit:4;stroke-opacity:1;stroke-dasharray:none" d="M 537.99,543.46 527.72,452.73 710.91,412.76 867.48,535.57 C 867.48,535.57 899.36,566 810.44,554.28 721.51,542.53 592.97,549.46 537.99,543.46 Z" sodipodi:nodetypes="cccczc" inkscape:connector-curvature="0" id="right-lid-shadow">
</path>
    </g>
</g>
  <path 
  d="M 102.93,103.39 105.92,107.39 C 93.71,117.45 101.67,113.26 86.23,115.90 79.53,120.62 64.68,121.17 54.25,124.96 L 57.04,114.33 C 68.25,119.33 67.52,121.46 78.55,115.95 88.28,111.91 92.12,107.59 102.93,103.39 Z" style="fill:#292929;fill-opacity:1;fill-rule:nonzero;stroke:#000000;stroke-width:1;stroke-miterlimit:4;stroke-opacity:1;stroke-dasharray:none" sodipodi:nodetypes="cczcczc" inkscape:connector-curvature="0" id="left-eye-brow">
</path>
  <g style="stroke-width:1" transform="matrix(1.13,0,0,1,-17.27,2.11)" id="nose">
    <path 
    style="fill:#1a1a1a;stroke:#000000;stroke-width:0.94;stroke-miterlimit:4;stroke-dasharray:none" d="M 113.53,159.89 C 114.36,165.37 115.58,168.24 116.83,172.07 118.06,175.89 123.62,181.65 128.91,181.68 134.21,181.70 143.78,173.18 142.03,165.86 140.31,158.53 141.57,169.25 133.19,144.20 139.02,163.64 146.67,158.84 147.32,166.79 147.98,174.74 143.51,172.05 139.68,175.37 135.88,178.70 135.97,180.93 129.62,180.74 123.26,180.55 121.85,179.01 119.91,176.59 117.97,174.17 116.52,172.30 113.61,171.97 110.68,171.66 109.03,167.36 113.53,159.89 Z" sodipodi:nodetypes="czzzczzzzzc" inkscape:connector-curvature="0" id="nose-outline">
</path>
  </g>
  <use 
  transform="matrix(-1,0,0,1,257.13,0.75)" xlink:href="#left-eye-brow" height="250" width="250" y="0" x="0" id="right-eye-brow">
</use>
  <g id="mouth">
    <g clip-path="url(#clipPath-mouth)" id="mouth-interior">
      <rect 
      style="fill:#000000;fill-opacity:1;stroke:none" id="mouth-background" width="119.94381" height="66.55629" x="68.159775" y="159.93378">
</rect>
      <path 
      d="M 98.34,211.42 C 98.01,191.12 114.23,189.74 130.46,189.07 148.01,188.36 161.92,193.11 161.92,211.42 140.73,211.42 119.54,211.42 98.34,211.42 Z" style="fill:#800f08;fill-opacity:1;stroke:none" id="tongue" inkscape:connector-curvature="0" sodipodi:nodetypes="cscc">
</path>
      <g 
      style="stroke:#000000;stroke-opacity:1" transform="translate(4,7.32)" morph="fix-children" id="upper-teeth">
        <rect 
        inkscape:transform-center-y="1.3353219" transform="matrix(0.99122501,0.13218537,0,1,0,0)" rx="1.3362287" ry="1.3245033" y="158.1953" x="95.524162" height="15.123333" width="10.355772" id="tooth-02" style="fill:#ffffff;fill-opacity:1;stroke:#000000;stroke-width:1.00441658;stroke-opacity:1">
</rect>
        <rect 
        id="tooth-03" width="10.2649" height="15.123333" x="106.35211" y="172.09084" ry="1.3245033" rx="1.3245033" style="fill:#ffffff;fill-opacity:1;stroke:#000000;stroke-opacity:1">
</rect>
        <rect 
        rx="1.3245033" ry="1.3245033" y="172.09084" x="118.35211" height="15.123333" width="10.2649" id="tooth-04" style="fill:#ffffff;fill-opacity:1;stroke:#000000;stroke-opacity:1">
</rect>
        <rect 
        id="tooth-05" width="10.2649" height="15.123333" x="130.35211" y="172.09084" ry="1.3245033" rx="1.3245033" style="fill:#ffffff;fill-opacity:1;stroke:#000000;stroke-opacity:1">
</rect>
        <rect 
        transform="matrix(0.9876076,-0.15694341,0,1,0,0)" rx="1.3411231" ry="1.3245033" y="194.76363" x="144.05383" height="15.123333" width="10.393703" id="tooth-06" style="fill:#ffffff;fill-opacity:1;stroke:#000000;stroke-width:1.00625432;stroke-opacity:1">
</rect>
</g>
      <g style="stroke:#000000;stroke-opacity:1" transform="translate(4,26.33)" id="lower-teeth">
        <rect 
        style="fill:#ffffff;fill-opacity:1;stroke:#000000;stroke-opacity:1" id="tooth-09" width="10.2649" height="15.123333" x="94.352112" y="172.09084" ry="1.3245033" rx="1.3245033">
</rect>
        <rect 
        style="fill:#ffffff;fill-opacity:1;stroke:#000000;stroke-opacity:1" rx="1.3245033" ry="1.3245033" y="172.09084" x="106.35211" height="15.123333" width="10.2649" id="tooth-10">
</rect>
        <rect 
        style="fill:#ffffff;fill-opacity:1;stroke:#000000;stroke-opacity:1" id="tooth-11" width="10.2649" height="15.123333" x="118.35211" y="172.09084" ry="1.3245033" rx="1.3245033">
</rect>
        <rect 
        style="fill:#ffffff;fill-opacity:1;stroke:#000000;stroke-opacity:1" rx="1.3245033" ry="1.3245033" y="172.09084" x="130.35211" height="15.123333" width="10.2649" id="tooth-12">
</rect>
        <rect 
        style="fill:#ffffff;fill-opacity:1;stroke:#000000;stroke-opacity:1" id="tooth-13" width="10.2649" height="15.123333" x="142.35211" y="172.09084" ry="1.3245033" rx="1.3245033">
</rect>
      </g>
    </g>
    <path 
    d="M 176.86,202.24 C 176.51,200.48 162.94,200.35 157.65,199.51 152.35,198.67 144.84,201.05 128.54,201.43 112.30,201.81 101.07,196.52 96.12,198.11 90.31,199.52 86.04,201.20 82.66,202.11 80.62,195.44 83.41,193.03 88.92,192.58 91.22,191.89 106.13,197.70 129.19,197.71 152.25,197.72 159.08,194.77 168.27,192.88 177.77,190.86 178.19,195.58 176.86,202.24 Z" style="fill:none;stroke:#000000;stroke-width:1px;stroke-miterlimit:4;stroke-opacity:1" sodipodi:nodetypes="czzzczzzcc" inkscape:connector-curvature="0" id="mouth-outline">
</path>
  </g>
</svg>
