<svg 
height="100%" width="100%" sodipodi:docname="face_000.svg" inkscape:version="0.48.4 r9939" id="emoticon-front-view" viewBox="0 0 250 250" version="1.1" xmlns:dc="http://purl.org/dc/elements/1.1/" xmlns:cc="http://creativecommons.org/ns#" xmlns:rdf="http://www.w3.org/1999/02/22-rdf-syntax-ns#" xmlns:svg="http://www.w3.org/2000/svg" xmlns="http://www.w3.org/2000/svg" xmlns:xlink="http://www.w3.org/1999/xlink" xmlns:sodipodi="http://sodipodi.sourceforge.net/DTD/sodipodi-0.dtd" xmlns:inkscape="http://www.inkscape.org/namespaces/inkscape">
  <metadata id="metadata3099">
    <rdf:RDF>
      <cc:Work rdf:about="">
        <dc:format/>
        <dc:type rdf:resource="http://purl.org/dc/dcmitype/StillImage"/>
        <dc:title/>
      </cc:Work>
    </rdf:RDF>
  </metadata>
  <sodipodi:namedview 
  inkscape:snap-global="false" inkscape:snap-nodes="false" inkscape:guide-bbox="true" showguides="true" inkscape:current-layer="emoticon-front-view" inkscape:window-maximized="1" inkscape:window-y="24" inkscape:window-x="1985" inkscape:cy="125" inkscape:cx="77.637244" inkscape:zoom="3.716" showgrid="false" id="namedview3097" inkscape:window-height="1056" inkscape:window-width="1855" inkscape:pageshadow="2" inkscape:pageopacity="0" guidetolerance="10" gridtolerance="10" objecttolerance="10" borderopacity="1" bordercolor="#666666" pagecolor="#ffffff" inkscape:snap-bbox="false">
</sodipodi:namedview>
  <defs id="defs4">
    <linearGradient id="linearGradient5745">
      <stop style="stop-color:#f4f015;stop-opacity:1" offset="0" id="stop5747"/>
      <stop style="stop-color:#f68614;stop-opacity:1" offset="1" id="stop5749"/>
    </linearGradient>
    <linearGradient id="linearGradient2823">
      <stop style="stop-color:#000000;stop-opacity:1" offset="0" id="stop2825"/>
      <stop style="stop-color:#780023;stop-opacity:1" offset="1" id="stop2827"/>
    </linearGradient>
    <clipPath id="clipPath2967">
      <use 
      transform="translate(-48.86,-147.03)" xlink:href="#path3622" height="1" width="1" y="0" x="0" id="use2969">
</use>
    </clipPath>
    <clipPath id="clipPath4022">
      <use 
      transform="matrix(-1,0,0,1,907.59,-127.94)" xlink:href="#path3622" height="250" width="250" y="0" x="0" id="use5959">
</use>
    </clipPath>
    <radialGradient 
    spreadMethod="pad" gradientTransform="matrix(98.09029,121.52782,-104.45905,83.940949,1881.611,1722.6769)" gradientUnits="userSpaceOnUse" xlink:href="#linearGradient5745" id="radialGradient5694" fy="2.7052789" fx="-15.37231" r="1" cy="2.7052789" cx="-15.37231">
</radialGradient>
    <linearGradient 
    gradientTransform="translate(37.463072,-25.351165)" gradientUnits="userSpaceOnUse" xlink:href="#linearGradient2823" id="irisGradient" y2="606.46576" x2="138.57143" y1="488.07648" x1="107.14286">
</linearGradient>
    <clipPath clipPathUnits="userSpaceOnUse" id="clipPath-mouth">
      <use x="0" y="0" xlink:href="#mouth-outline" id="use-mouth-outline" width="250" height="250"/>
    </clipPath>
  </defs>
  <g id="head">
    <path 
    style="fill:#e9c6af;stroke:#000000;stroke-width:1;stroke-opacity:1" d="M 128.48,230.66 C 176.27,230.75 219.01,200.57 219.41,132.64 219.79,64.72 176.76,31.81 126.68,31.52 76.60,31.24 37.38,66.28 37.09,132.65 36.80,199.01 80.69,230.57 128.48,230.66 Z" sodipodi:nodetypes="zzzzz" inkscape:connector-curvature="0" id="path164">
</path>
  </g>
  <g 
  transform="matrix(0.16,0,0,0.16,63.94,17.76)" style="stroke-width:4.36;stroke-miterlimit:4;stroke-dasharray:none" id="left-eye">
    <path 
    d="M 198.45,602.87 C 241.64,609.42 294.11,681.21 311.69,714.33 217.84,649.23 194.13,645.03 30.98,683.91 40.45,652.95 56.44,637.09 82.31,618.62 108.18,600.15 155.25,596.32 198.45,602.87 Z" style="fill:#ffffff;stroke:#000000;stroke-width:6.14;stroke-miterlimit:4;stroke-opacity:1;stroke-dasharray:none" sodipodi:nodetypes="ccccc" inkscape:connector-curvature="0" id="path3622">
</path>
    <g 
    transform="translate(48.86,147.03)" style="stroke-width:4.36;stroke-miterlimit:4;stroke-dasharray:none" id="lens" clip-path="url(#clipPath2967)">
      <g id="g4403">
        <path 
        style="fill:#9d4922;fill-opacity:1;stroke:#000000;stroke-width:6.14;stroke-miterlimit:4;stroke-opacity:1;stroke-dasharray:none" d="M 205.38,519.39 C 205.38,534.35 199.53,549.21 189.48,559.79 179.43,570.37 165.31,576.53 151.09,576.53 136.88,576.53 122.76,570.37 112.71,559.79 102.66,549.21 96.80,534.35 96.80,519.39 96.80,504.43 102.66,489.56 112.71,478.98 122.76,468.40 136.88,462.24 151.09,462.24 165.31,462.24 179.43,468.40 189.48,478.98 199.53,489.56 205.38,504.43 205.38,519.39 Z" inkscape:connector-curvature="0" id="iris">
</path>
        <path 
        d="M 168.81,522.49 C 168.81,527.16 166.89,531.81 163.58,535.12 160.27,538.43 155.63,540.35 150.95,540.35 146.27,540.35 141.63,538.43 138.32,535.12 135.02,531.81 133.09,527.16 133.09,522.49 133.09,517.81 135.02,513.16 138.32,509.85 141.63,506.55 146.27,504.62 150.95,504.62 155.63,504.62 160.27,506.55 163.58,509.85 166.89,513.16 168.81,517.81 168.81,522.49 Z" style="fill:#000000;fill-opacity:1;stroke:#000000;stroke-width:6.14;stroke-miterlimit:4;stroke-opacity:1;stroke-dasharray:none" inkscape:connector-curvature="0" id="pupil">
</path>
        <path 
        d="M 120.54,516.41 C 120.54,521.15 116.63,524.99 111.84,524.99 107.05,524.99 103.16,521.15 103.16,516.41 103.16,511.67 107.05,507.82 111.84,507.82 116.63,507.82 120.54,511.67 120.54,516.41 Z" style="fill:#ffffff;fill-opacity:1;stroke:none" inkscape:connector-curvature="0" id="glare">
</path>
      </g>
      <path 
      style="opacity:0.24;fill:#000000;stroke:#000000;stroke-width:1px;stroke-linecap:butt;stroke-linejoin:miter;stroke-opacity:1" d="M -119.84,530.47 -75.34,422.06 305.31,412.27 312.28,524.06 C 312.28,524.06 154.73,473.06 80.78,473.55 3.21,475.03 -119.84,530.47 -119.84,530.47 Z" sodipodi:nodetypes="ccccsc" inkscape:connector-curvature="0" id="left-lid-shadow">
</path>
</g>
</g>
  <g 
  transform="matrix(0.16,0,0,0.16,41.34,38.24)" style="stroke-width:4.36;stroke-miterlimit:4;stroke-dasharray:none" id="right-eye">
    <use 
    transform="matrix(-1,0,0,1,907.59,-127.94)" xlink:href="#path3622" height="250" width="250" y="0" x="0" id="use3959">
</use>
    <g id="g4015" clip-path="url(#clipPath4022)">
      <use 
      transform="translate(582.15,19.94)" style="stroke-width:4.36;stroke-miterlimit:4;stroke-dasharray:none" xlink:href="#g4403" height="1" width="1" y="0" x="0" id="right-lens">
</use>
      <path 
      style="opacity:0.24;fill:#000000;stroke:#000000;stroke-width:1px;stroke-linecap:butt;stroke-linejoin:miter;stroke-miterlimit:4;stroke-opacity:1;stroke-dasharray:none" d="M 507.37,628.34 544.71,378.20 983.41,344.88 1053.96,568.52 C 1053.96,568.52 801.19,465.12 720.10,499.20 638.99,533.28 566.31,606.42 507.37,628.34 Z" sodipodi:nodetypes="cccczc" inkscape:connector-curvature="0" id="right-lid-shadow">
</path>
    </g>
</g>
  <path 
  d="M 118.82,107.55 119.11,116.38 C 108.42,103.86 103.00,96.03 88.67,96 74.35,95.97 74.21,97.17 67.24,99.82 L 66.50,99.48 C 74.11,96.61 76.03,96.20 87.51,95.03 98.99,93.87 106.68,98.78 118.82,107.55 Z" style="fill:#292929;fill-opacity:1;fill-rule:nonzero;stroke:#000000;stroke-width:1;stroke-miterlimit:4;stroke-opacity:1;stroke-dasharray:none" sodipodi:nodetypes="cczcczc" inkscape:connector-curvature="0" id="left-eye-brow">
</path>
  <g style="stroke-width:1" transform="matrix(1.13,0,0,1,-17.27,2.11)" id="nose">
    <path 
    style="fill:#1a1a1a;stroke:#000000;stroke-width:0.94;stroke-miterlimit:4;stroke-dasharray:none" d="M 113.54,157.09 C 113.65,161.11 113.49,163.01 116.26,165.58 119.03,168.17 123.63,170.30 129.61,170.34 135.59,170.37 143.62,166.93 142.35,160.55 141.09,154.14 142.20,163.82 137.66,144.29 140.17,158.09 145.83,157.95 146.67,162.69 147.51,167.44 142.88,166.62 139.19,168.83 135.52,171.04 134.84,171.63 129.83,171.47 124.81,171.32 122.99,171.24 120.55,169.78 118.11,168.31 116.68,166.44 113.73,166.05 110.77,165.66 109.80,162.62 113.45,156.99 Z" sodipodi:nodetypes="czzzczzzzzc" inkscape:connector-curvature="0" id="nose-outline">
</path>
  </g>
  <use 
  transform="matrix(-1,-0.01,-0.01,1,255.34,1.03)" xlink:href="#left-eye-brow" height="250" width="250" y="0" x="0" id="right-eye-brow">
</use>
  <g id="mouth">
    <g clip-path="url(#clipPath-mouth)" id="mouth-interior">
      <rect 
      style="fill:#000000;fill-opacity:1;stroke:none" id="mouth-background" width="119.94381" height="66.55629" x="68.159775" y="159.93378">
</rect>
      <path 
      d="M 98.34,211.42 C 98.01,191.12 114.23,189.74 130.46,189.07 148.01,188.36 161.92,193.11 161.92,211.42 140.73,211.42 119.54,211.42 98.34,211.42 Z" style="fill:#800f08;fill-opacity:1;stroke:none" id="tongue" inkscape:connector-curvature="0" sodipodi:nodetypes="cscc">
</path>
      <g 
      style="stroke:#000000;stroke-opacity:1" transform="translate(4,9.50)" morph="fix-children" id="upper-teeth">
        <rect 
        inkscape:transform-center-y="1.3353219" transform="matrix(0.99122501,0.13218537,0,1,0,0)" rx="1.3362287" ry="1.3245033" y="158.1953" x="95.524162" height="15.123333" width="10.355772" id="tooth-02" style="fill:#ffffff;fill-opacity:1;stroke:#000000;stroke-width:1.00441658;stroke-opacity:1">
</rect>
        <rect 
        transform="matrix(0.99978101,0.02092668,0,1,0,0)" id="tooth-03" width="10.267149" height="15.123333" x="106.3754" y="169.93416" ry="1.3245033" rx="1.3247935" style="fill:#ffffff;fill-opacity:1;stroke:#000000;stroke-width:1.00010955;stroke-opacity:1">
</rect>
        <rect 
        rx="1.3245033" ry="1.3245033" y="172.32661" x="118.35211" height="15.123333" width="10.2649" id="tooth-04" style="fill:#ffffff;fill-opacity:1;stroke:#000000;stroke-opacity:1">
</rect>
        <rect 
        transform="matrix(0.99978101,-0.02092669,0,1,0,0)" id="tooth-05" width="10.267148" height="15.123333" x="130.38066" y="174.98564" ry="1.3245033" rx="1.3247935" style="fill:#ffffff;fill-opacity:1;stroke:#000000;stroke-width:1.00010955;stroke-opacity:1">
</rect>
        <rect 
        transform="matrix(0.9876076,-0.15694341,0,1,0,0)" rx="1.3411231" ry="1.3245033" y="194.64574" x="144.05383" height="15.123333" width="10.393703" id="tooth-06" style="fill:#ffffff;fill-opacity:1;stroke:#000000;stroke-width:1.00625432;stroke-opacity:1">
</rect>
</g>
      <g style="stroke:#000000;stroke-opacity:1" transform="translate(4,26)" id="lower-teeth">
        <rect 
        style="fill:#ffffff;fill-opacity:1;stroke:#000000;stroke-opacity:1" id="tooth-09" width="10.2649" height="15.123333" x="94.352112" y="172.09084" ry="1.3245033" rx="1.3245033">
</rect>
        <rect 
        style="fill:#ffffff;fill-opacity:1;stroke:#000000;stroke-opacity:1" rx="1.3245033" ry="1.3245033" y="172.09084" x="106.35211" height="15.123333" width="10.2649" id="tooth-10">
</rect>
        <rect 
        style="fill:#ffffff;fill-opacity:1;stroke:#000000;stroke-opacity:1" id="tooth-11" width="10.2649" height="15.123333" x="118.35211" y="172.09084" ry="1.3245033" rx="1.3245033">
</rect>
        <rect 
        style="fill:#ffffff;fill-opacity:1;stroke:#000000;stroke-opacity:1" rx="1.3245033" ry="1.3245033" y="172.09084" x="130.35211" height="15.123333" width="10.2649" id="tooth-12">
</rect>
        <rect 
        style="fill:#ffffff;fill-opacity:1;stroke:#000000;stroke-opacity:1" id="tooth-13" width="10.2649" height="15.123333" x="142.35211" y="172.09084" ry="1.3245033" rx="1.3245033">
</rect>
      </g>
    </g>
    <path 
    d="M 169.14,183.10 C 166.34,186.65 163.65,190.57 155.59,194.02 147.52,197.46 144.03,197.96 129.52,197.83 115.01,197.70 109.21,197.35 101.74,194.49 93.22,191.28 88.79,186.59 87.94,184.13 93.24,188.90 97.89,191.57 102.76,193.43 107.63,195.28 111.17,194.97 130.11,194.97 149.05,194.97 150.77,193.07 155.54,192.05 161.17,190.79 164.64,186.07 169.14,183.10 Z" style="fill:none;stroke:#000000;stroke-width:1px;stroke-miterlimit:4;stroke-opacity:1" sodipodi:nodetypes="czzzczzzcc" inkscape:connector-curvature="0" id="mouth-outline">
</path>
  </g>
  <g style="stroke-width:6;stroke-miterlimit:48;stroke-dasharray:none" id="wrinkles">
    <path 
    d="M 1066.43,893.97 C 1080.18,922.67 1074.83,962.56 1069.13,975.48" style="fill:none;stroke:#000000;stroke-width:4.50;stroke-linecap:butt;stroke-linejoin:miter;stroke-miterlimit:36;stroke-opacity:9;stroke-dasharray:none" inkscape:connector-curvature="0" id="wrinkle-left-brow" sodipodi:nodetypes="cc">
</path>
    <path 
    d="M 721.46,1631.05 C 755.36,1610.74 786.53,1567.23 831.24,1536.84" style="fill:none;stroke:#000000;stroke-width:4.50;stroke-linecap:butt;stroke-linejoin:miter;stroke-opacity:9;stroke-miterlimit:36;stroke-dasharray:none" inkscape:connector-curvature="0" id="wrinkle-left-cheek" sodipodi:nodetypes="cc">
</path>
    <use 
    transform="matrix(-12,0,0,12,3089.33,0)" style="stroke-width:6;stroke-miterlimit:48;stroke-dasharray:none" x="0" y="0" xlink:href="#wrinkle-left-brow" id="wrinkle-right-brow" width="250" height="250">
</use>
    <use 
    transform="matrix(-12,0,0,12,3094.14,0)" style="stroke-width:6;stroke-miterlimit:48;stroke-dasharray:none" x="0" y="0" xlink:href="#wrinkle-left-cheek" id="wrinkle-right-cheek" width="250" height="250">
</use>
  </g>
</svg>
