<svg 
height="100%" width="100%" sodipodi:docname="face_000.svg" inkscape:version="0.48.4 r9939" id="emoticon-front-view" viewBox="0 0 250 250" version="1.1" xmlns:inkscape="http://www.inkscape.org/namespaces/inkscape" xmlns:sodipodi="http://sodipodi.sourceforge.net/DTD/sodipodi-0.dtd" xmlns:xlink="http://www.w3.org/1999/xlink" xmlns="http://www.w3.org/2000/svg" xmlns:svg="http://www.w3.org/2000/svg" xmlns:rdf="http://www.w3.org/1999/02/22-rdf-syntax-ns#" xmlns:cc="http://creativecommons.org/ns#" xmlns:dc="http://purl.org/dc/elements/1.1/">
  <metadata id="metadata3099">
    <rdf:RDF>
      <cc:Work rdf:about="">
        <dc:format/>
        <dc:type rdf:resource="http://purl.org/dc/dcmitype/StillImage"/>
        <dc:title/>
      </cc:Work>
    </rdf:RDF>
  </metadata>
  <sodipodi:namedview 
  inkscape:snap-global="false" inkscape:snap-nodes="false" inkscape:guide-bbox="true" showguides="true" inkscape:current-layer="mouth-interior" inkscape:window-maximized="0" inkscape:window-y="39" inkscape:window-x="1985" inkscape:cy="125" inkscape:cx="125" inkscape:zoom="3.02" showgrid="false" id="namedview3097" inkscape:window-height="882" inkscape:window-width="1528" inkscape:pageshadow="2" inkscape:pageopacity="0" guidetolerance="10" gridtolerance="10" objecttolerance="10" borderopacity="1" bordercolor="#666666" pagecolor="#ffffff" inkscape:snap-bbox="false">
    <sodipodi:guide id="guide3013" position="129.80132,233.11258" orientation="1,0"/>
    <sodipodi:guide id="guide3016" position="96.02649,131.45695" orientation="1,0"/>
    <sodipodi:guide id="guide3018" position="159.27152,225.16556" orientation="1,0"/>
    <sodipodi:guide id="guide3020" position="187.08609,126.82119" orientation="0,1"/>
    <sodipodi:guide orientation="0,1" position="151.92803,65.672732" id="guide3045"/>
</sodipodi:namedview>
  <defs id="defs4">
    <linearGradient id="linearGradient5745">
      <stop style="stop-color:#f4f015;stop-opacity:1" offset="0" id="stop5747"/>
      <stop style="stop-color:#f68614;stop-opacity:1" offset="1" id="stop5749"/>
    </linearGradient>
    <linearGradient id="linearGradient2823">
      <stop style="stop-color:#000000;stop-opacity:1" offset="0" id="stop2825"/>
      <stop style="stop-color:#6f0a5a;stop-opacity:1" offset="1" id="stop2827"/>
    </linearGradient>
    <clipPath id="clipPath2967">
      <use 
      transform="translate(-55.48,15.25)" xlink:href="#path3622" height="1" width="1" y="0" x="0" id="use2969">
</use>
    </clipPath>
    <clipPath id="clipPath4022">
      <use 
      transform="matrix(-1,0,0,1,914.21,34.34)" xlink:href="#path3622" height="250" width="250" y="0" x="0" id="use5959">
</use>
    </clipPath>
    <radialGradient 
    spreadMethod="pad" gradientTransform="matrix(98.09029,121.52782,-104.45905,83.940949,1881.611,1722.6769)" gradientUnits="userSpaceOnUse" xlink:href="#linearGradient5745" id="radialGradient5694" fy="2.7052789" fx="-15.37231" r="1" cy="2.7052789" cx="-15.37231">
</radialGradient>
    <linearGradient 
    gradientTransform="translate(37.463072,-25.351165)" gradientUnits="userSpaceOnUse" xlink:href="#linearGradient2823" id="irisGradient" y2="606.46576" x2="138.57143" y1="488.07648" x1="107.14286">
</linearGradient>
    <clipPath clipPathUnits="userSpaceOnUse" id="clipPath-mouth">
      <use x="0" y="0" xlink:href="#mouth-outline" id="use-mouth-outline" width="250" height="250"/>
    </clipPath>
  </defs>
  <g id="head">
    <path 
    style="fill:#e9c6af;stroke:#000000;stroke-width:1;stroke-opacity:1" d="M 128.48,230.66 C 176.27,230.75 219.01,200.57 219.41,132.64 219.80,64.72 176.76,31.81 126.68,31.53 76.60,31.24 37.38,66.28 37.09,132.64 36.80,199.01 80.69,230.57 128.48,230.66 Z" sodipodi:nodetypes="zzzzz" inkscape:connector-curvature="0" id="path164">
</path>
  </g>
  <g 
  transform="matrix(0.16,0,0,0.16,62.61,39.38)" style="stroke-width:4.36;stroke-miterlimit:4;stroke-dasharray:none" id="left-eye">
    <path 
    d="M 231.36,438.04 C 300.51,454.43 329.47,502.82 302.98,556.82 276.92,591.93 131.74,604.32 143.76,613.15 102.13,590.46 63.26,543.67 78.53,499.73 72.73,468.12 185.74,404.02 231.36,438.04 Z" style="fill:#ffffff;stroke:#000000;stroke-width:6.14;stroke-miterlimit:4;stroke-opacity:1;stroke-dasharray:none" sodipodi:nodetypes="ccccc" inkscape:connector-curvature="0" id="path3622">
</path>
    <g 
    transform="translate(55.48,-15.25)" style="stroke-width:4.36;stroke-miterlimit:4;stroke-dasharray:none" id="lens" clip-path="url(#clipPath2967)">
      <g id="g4403">
        <path 
        style="fill:#9d4922;fill-opacity:1;stroke:#000000;stroke-width:6.14;stroke-miterlimit:4;stroke-opacity:1;stroke-dasharray:none" d="M 205.38,519.39 C 205.38,534.35 199.53,549.21 189.48,559.79 179.43,570.37 165.31,576.53 151.09,576.53 136.88,576.53 122.76,570.37 112.71,559.79 102.66,549.21 96.80,534.35 96.80,519.39 96.80,504.43 102.66,489.56 112.71,478.98 122.76,468.40 136.88,462.24 151.09,462.24 165.31,462.24 179.43,468.40 189.48,478.98 199.53,489.56 205.38,504.43 205.38,519.39 Z" inkscape:connector-curvature="0" id="iris">
</path>
        <path 
        d="M 168.82,522.49 C 168.82,527.16 166.89,531.81 163.58,535.12 160.27,538.43 155.63,540.35 150.95,540.35 146.27,540.35 141.63,538.43 138.32,535.12 135.02,531.81 133.09,527.16 133.09,522.49 133.09,517.81 135.02,513.16 138.32,509.85 141.63,506.55 146.27,504.62 150.95,504.62 155.63,504.62 160.27,506.55 163.58,509.85 166.89,513.16 168.82,517.81 168.82,522.49 Z" style="fill:#000000;fill-opacity:1;stroke:#000000;stroke-width:6.14;stroke-miterlimit:4;stroke-opacity:1;stroke-dasharray:none" inkscape:connector-curvature="0" id="pupil">
</path>
        <path 
        d="M 136.48,508.86 C 136.48,513.85 132.38,517.88 127.35,517.88 122.31,517.88 118.23,513.85 118.23,508.86 118.23,503.88 122.31,499.84 127.35,499.84 132.38,499.84 136.48,503.88 136.48,508.86 Z" style="fill:#ffffff;fill-opacity:1;stroke:none" inkscape:connector-curvature="0" id="glare">
</path>
      </g>
      <path 
      style="opacity:0.24;fill:#000000;stroke:#000000;stroke-width:1px;stroke-linecap:butt;stroke-linejoin:miter;stroke-opacity:1" d="M -15.80,525.59 -16.15,410.88 300.34,415.58 300.60,452.95 C 300.60,452.95 214.57,406.88 80.65,442.60 -8.22,469.46 -15.80,525.59 -15.80,525.59 Z" sodipodi:nodetypes="ccccsc" inkscape:connector-curvature="0" id="left-lid-shadow">
</path>
</g>
</g>
  <g 
  transform="matrix(0.16,0,0,0.16,45.12,33.90)" style="stroke-width:4.36;stroke-miterlimit:4;stroke-dasharray:none" id="right-eye">
    <use 
    transform="matrix(-1,0,0,1,914.21,34.34)" xlink:href="#path3622" height="250" width="250" y="0" x="0" id="use3959">
</use>
    <g id="g4015" clip-path="url(#clipPath4022)">
      <use 
      transform="translate(564.19,19.02)" style="stroke-width:4.36;stroke-miterlimit:4;stroke-dasharray:none" xlink:href="#g4403" height="1" width="1" y="0" x="0" id="right-lens">
</use>
      <path 
      style="opacity:0.24;fill:#000000;stroke:#000000;stroke-width:1px;stroke-linecap:butt;stroke-linejoin:miter;stroke-miterlimit:4;stroke-opacity:1;stroke-dasharray:none" d="M 554.55,543.46 589.02,369.89 788.78,407.79 870.96,517.62 C 870.96,517.62 831.29,454.33 719.56,457.46 607.82,460.59 579.54,516.14 554.55,543.46 Z" sodipodi:nodetypes="cccczc" inkscape:connector-curvature="0" id="right-lid-shadow">
</path>
    </g>
</g>
  <path 
  d="M 101.77,69.15 101.61,67.15 C 94.38,71.11 84.56,79.89 75.08,83.23 65.61,86.58 62.19,92.37 56.49,94.43 L 55.92,92.45 C 58.65,91.25 67.28,84.64 74.96,83.33 82.65,82.03 95.65,75.08 101.77,69.15 Z" style="fill:#292929;fill-opacity:1;fill-rule:nonzero;stroke:#000000;stroke-width:1;stroke-miterlimit:4;stroke-opacity:1;stroke-dasharray:none" sodipodi:nodetypes="cczcczc" inkscape:connector-curvature="0" id="left-eye-brow">
</path>
  <g style="stroke-width:1" transform="matrix(1.13,0,0,1,-17.27,2.11)" id="nose">
    <path 
    style="fill:#1a1a1a;stroke:#000000;stroke-width:0.94;stroke-miterlimit:4;stroke-dasharray:none" d="M 111.10,149.41 C 110.80,154.20 112.90,157.22 116.75,157.45 120.61,157.69 124.81,154.37 130.79,154.41 136.77,154.44 139.13,157.68 144.01,156.18 148.90,154.68 148.09,148.07 140.87,137.07 148.58,149.99 151.02,150.93 147.76,155.67 144.51,160.42 143.66,159.49 138.90,159.47 134.14,159.45 135.63,159.49 130.61,159.33 125.60,159.18 126.92,159.10 122.71,158.98 118.51,158.84 117.57,159.31 114.81,159.03 112.05,158.75 109.70,155.60 111.01,149.31 Z" sodipodi:nodetypes="czzzczzzzzc" inkscape:connector-curvature="0" id="nose-outline">
</path>
  </g>
  <use 
  transform="matrix(-1,-0.01,-0.01,1,255.57,0.80)" xlink:href="#left-eye-brow" height="250" width="250" y="0" x="0" id="right-eye-brow">
</use>
  <g id="mouth">
    <g clip-path="url(#clipPath-mouth)" id="mouth-interior">
      <rect 
      style="fill:#000000;fill-opacity:1;stroke:none" id="mouth-background" width="145.36424" height="66.55629" x="52.649006" y="159.93378">
</rect>
      <path 
      d="M 98.34,211.42152 C 98.008874,191.1245 114.23,189.74 130.46,189.07 c 17.55,-0.71 31.46325,4.04351 31.46,22.35152 -21.19,0 -42.38,0 -63.58,0 z" style="fill:#800f08;fill-opacity:1;stroke:none" id="tongue" inkscape:connector-curvature="0" sodipodi:nodetypes="cscc">
</path>
      <g transform="translate(4,-1.01)" style="stroke:#000000;stroke-opacity:1" id="upper-teeth">
        <rect 
        style="fill:#ffffff;fill-opacity:1;stroke:#000000;stroke-opacity:1" rx="1.3245033" ry="1.3245033" y="172.09084" x="94.352112" height="15.123333" width="10.2649" id="tooth-02">
</rect>
        <rect 
        style="fill:#ffffff;fill-opacity:1;stroke:#000000;stroke-opacity:1" id="tooth-03" width="10.2649" height="15.123333" x="106.35211" y="172.09084" ry="1.3245033" rx="1.3245033">
</rect>
        <rect 
        style="fill:#ffffff;fill-opacity:1;stroke:#000000;stroke-opacity:1" rx="1.3245033" ry="1.3245033" y="172.09084" x="118.35211" height="15.123333" width="10.2649" id="tooth-04">
</rect>
        <rect 
        style="fill:#ffffff;fill-opacity:1;stroke:#000000;stroke-opacity:1" id="tooth-05" width="10.2649" height="15.123333" x="130.35211" y="172.09084" ry="1.3245033" rx="1.3245033">
</rect>
        <rect 
        style="fill:#ffffff;fill-opacity:1;stroke:#000000;stroke-opacity:1" rx="1.3245033" ry="1.3245033" y="172.09084" x="142.35211" height="15.123333" width="10.2649" id="tooth-06">
</rect>
      </g>
      <g transform="translate(4,22)" style="stroke:#000000;stroke-opacity:1" id="lower-teeth">
        <rect 
        style="fill:#ffffff;fill-opacity:1;stroke:#000000;stroke-opacity:1" id="tooth-09" width="10.2649" height="15.123333" x="94.352112" y="172.09084" ry="1.3245033" rx="1.3245033">
</rect>
        <rect 
        style="fill:#ffffff;fill-opacity:1;stroke:#000000;stroke-opacity:1" rx="1.3245033" ry="1.3245033" y="172.09084" x="106.35211" height="15.123333" width="10.2649" id="tooth-10">
</rect>
        <rect 
        style="fill:#ffffff;fill-opacity:1;stroke:#000000;stroke-opacity:1" id="tooth-11" width="10.2649" height="15.123333" x="118.35211" y="172.09084" ry="1.3245033" rx="1.3245033">
</rect>
        <rect 
        style="fill:#ffffff;fill-opacity:1;stroke:#000000;stroke-opacity:1" rx="1.3245033" ry="1.3245033" y="172.09084" x="130.35211" height="15.123333" width="10.2649" id="tooth-12">
</rect>
        <rect 
        style="fill:#ffffff;fill-opacity:1;stroke:#000000;stroke-opacity:1" id="tooth-13" width="10.2649" height="15.123333" x="142.35211" y="172.09084" ry="1.3245033" rx="1.3245033">
</rect>
      </g>
    </g>
    <path 
    d="M 181.74,174.33 C 185.17,177.35 176.38,189.66 166.14,193.13 155.89,196.61 149.89,197.20 130.21,197.55 112.51,197.87 102.66,196.39 91.46,193.62 81.30,191.21 73.67,177.22 74.62,174.45 74.90,174.98 81.35,175.52 88.23,179.50 99.23,184.75 111.66,188.42 127.82,187.86 145.18,187.27 160.27,186.91 169.76,180.69 178.69,174.59 180.32,174.68 181.74,174.33 Z" style="fill:none;stroke:#000000;stroke-width:1px;stroke-miterlimit:4;stroke-opacity:1" sodipodi:nodetypes="czzzczzzcc" inkscape:connector-curvature="0" id="mouth-outline">
</path>
  </g>
</svg>
