<?xml version="1.0" encoding="UTF-8" standalone="no"?>
<svg
   xmlns:dc="http://purl.org/dc/elements/1.1/"
   xmlns:cc="http://creativecommons.org/ns#"
   xmlns:rdf="http://www.w3.org/1999/02/22-rdf-syntax-ns#"
   xmlns:svg="http://www.w3.org/2000/svg"
   xmlns="http://www.w3.org/2000/svg"
   xmlns:xlink="http://www.w3.org/1999/xlink"
   xmlns:sodipodi="http://sodipodi.sourceforge.net/DTD/sodipodi-0.dtd"
   xmlns:inkscape="http://www.inkscape.org/namespaces/inkscape"
   id="emoticon-front-view"
   viewBox="0 0 250 250"
   sodipodi:docname="face_+0-.svg"
   height="100%"
   width="100%"
   inkscape:version="0.48.4 r9939"
   version="1.1">
  <metadata
     id="metadata3099">
    <rdf:RDF>
      <cc:Work
         rdf:about="">
        <dc:format>image/svg+xml</dc:format>
        <dc:type
           rdf:resource="http://purl.org/dc/dcmitype/StillImage" />
        <dc:title />
      </cc:Work>
    </rdf:RDF>
  </metadata>
  <sodipodi:namedview
     id="namedview3097"
     inkscape:snap-page="true"
     inkscape:snap-grids="true"
     pagecolor="#ffffff"
     borderopacity="1"
     gridtolerance="10"
     inkscape:pageopacity="0"
     inkscape:window-width="1855"
     showgrid="false"
     inkscape:cx="124.7506"
     inkscape:window-x="1985"
     inkscape:window-maximized="1"
     showguides="true"
     inkscape:snap-nodes="true"
     inkscape:snap-global="true"
     inkscape:guide-bbox="true"
     inkscape:current-layer="emoticon-front-view"
     inkscape:window-y="24"
     inkscape:cy="118.90579"
     inkscape:zoom="4.5420026"
     inkscape:window-height="1056"
     inkscape:pageshadow="2"
     guidetolerance="10"
     objecttolerance="10"
     bordercolor="#666666"
     inkscape:snap-bbox="true" />
  <defs
     id="defs">
    <clipPath
       id="clipPath-left-eye">
      <use
         transform="matrix(1,0,0,1,0,0)"
         x="0"
         width="1"
         xlink:href="#left-eye-outline"
         height="1"
         y="0"
         id="use-left-eye-outline-1" />
    </clipPath>
    <clipPath
       id="clipPath-right-eye">
      <use
         transform="matrix(-1,0,0,1,250,0)"
         id="use-left-eye-outline-2"
         y="0"
         height="250"
         xlink:href="#left-eye-outline"
         width="250"
         x="0"
         morph="fixed" />
    </clipPath>
    <clipPath
       id="clipPath-mouth"
       clipPathUnits="userSpaceOnUse">
      <use
         transform="matrix(1,0,0,1,0,0)"
         height="250"
         y="0"
         x="0"
         xlink:href="#mouth-outline"
         id="use-mouth-outline"
         width="250" />
    </clipPath>
  </defs>
  <g
     id="head">
    <path
       d="M 124.98,230.66 C 172.77,230.75 215.51,200.57 215.91,132.64 216.3,64.72 173.26,31.81 123.18,31.53 73.1,31.24 33.88,66.28 33.59,132.64 33.3,199.01 77.19,230.57 124.98,230.66 Z"
       style="fill:#e9c6af;stroke:#000000;stroke-width:1"
       id="head-outline"
       sodipodi:nodetypes="zzzzz"
       inkscape:connector-curvature="0" />
  </g>
  <g
     id="left-eye">
    <path
       d="m 94.75,109.26 c 19.06,0.4 20.63,13.31 15.23,21.38 -8.3,-3.13 -20.698662,-4.04134 -30.259833,2.59766 C 65.43117,121.3385 79.82,108.94 94.75,109.26 z"
       style="fill:#ffffff;stroke:#000000;stroke-width:1"
       id="left-eye-outline"
       sodipodi:nodetypes="cccc"
       inkscape:connector-curvature="0" />
    <g
       clip-path="url(#clipPath-left-eye)"
       id="left-eyeball">
      <g
         id="left-lens">
        <path
           d="M 1,0.5 C 1,0.78 0.78,1 0.5,1 0.22,1 0,0.78 0,0.5 0,0.22 0.22,0 0.5,0 0.78,0 1,0.22 1,0.5 z"
           transform="matrix(17.83,0,0,17.83,84.21,112.89)"
           style="fill:#9d4922;stroke:#000000;stroke-width:0.06"
           id="iris"
           morph="relative"
           inkscape:connector-curvature="0" />
        <path
           d="M 1,0.5 C 1,0.78 0.78,1 0.5,1 0.22,1 0,0.78 0,0.5 0,0.22 0.22,0 0.5,0 0.78,0 1,0.22 1,0.5 z"
           transform="matrix(7.28,0,0,7.28,89.4,118.16)"
           style="fill:#000000;stroke:#000000;stroke-width:0.17"
           id="pupil"
           morph="relative"
           inkscape:connector-curvature="0"
           sodipodi:nodetypes="sssss" />
        <path
           d="M 1,0.5 C 1,0.78 0.78,1 0.5,1 0.22,1 0,0.78 0,0.5 0,0.22 0.22,0 0.5,0 0.78,0 1,0.22 1,0.5 z"
           transform="matrix(2.9,0,0,2.9,87.26,118.92)"
           style="fill:#ffffff;stroke:none"
           id="glare"
           inkscape:connector-curvature="0"
           morph="transform-only" />
      </g>
      <path
         d="M 50,75 125,75 125,118.99 C 104.95,107.26 82.17,110.54 50,134.65 Z"
         style="opacity:0.24;fill:#000000;stroke:#000000;stroke-width:0px"
         id="left-lid-shadow"
         sodipodi:nodetypes="ccccc"
         inkscape:connector-curvature="0" />
    </g>
  </g>
  <g
     id="right-eye">
    <use
       transform="matrix(-1,0,0,1,250,0)"
       id="right-eye-outline"
       y="0"
       height="250"
       xlink:href="#left-eye-outline"
       width="250"
       x="0"
       morph="fixed" />
    <g
       clip-path="url(#clipPath-right-eye)"
       id="right-eyeball">
      <use
         transform="matrix(1,0,0,1,64,0)"
         id="right-lens"
         y="0"
         height="1"
         xlink:href="#left-lens"
         width="1"
         x="0"
         morph="fixed" />
      <path
         d="M 125,129.08 125,75 200,75 200,129.17 C 166.06,100.93 140.51,114.02 125,129.08 Z"
         style="opacity:0.24;fill:#000000;stroke:#000000;stroke-width:0px"
         id="right-lid-shadow"
         sodipodi:nodetypes="ccccc"
         inkscape:connector-curvature="0" />
    </g>
  </g>
  <path
     d="M 95.41,72.05 C 79.209164,77.05699 63.007826,85.426322 52.2,101.68 L 50.3,99.42 C 63.879164,83.076823 78.779164,75.828997 95.64,69.16 z"
     style="fill:#292929;stroke-width:1"
     id="left-eye-brow"
     sodipodi:nodetypes="ccccc"
     inkscape:connector-curvature="0" />
  <g
     id="nose">
    <path
       d="m 105.51,152.34 c 0.08,7.29 9.92,4.54 19.6,4.65 20.7,0.92 26.47,2.14 20.81,-10.02 5.08,8.46 2.32,9.95 1.18,11.82 -5.54,-0.18 -13.99,-0.33 -22.04,-0.43 -7.92,-0.35 -11.32017,0.81067 -15.45,0.58 -2.36,-0.29 -6.88,-1.03 -4.1,-6.6 z"
       style="fill:#1a1a1a;stroke:#000000;stroke-width:1"
       id="nose-outline"
       sodipodi:nodetypes="cccsccc"
       inkscape:connector-curvature="0" />
  </g>
  <use
     transform="matrix(-1,0,0,1,250,0)"
     x="0"
     width="250"
     xlink:href="#left-eye-brow"
     height="250"
     y="0"
     id="right-eye-brow" />
  <g
     id="mouth">
    <g
       id="mouth-interior"
       clip-path="url(#clipPath-mouth)">
      <rect
         style="fill:#000000;stroke:none"
         id="mouth-background"
         x="68.159775"
         width="119.94381"
         height="66.55629"
         y="159.93378" />
      <path
         d="M 94.84,211.42 C 94.51,191.12 110.73,189.74 126.96,189.07 144.51,188.36 158.42,193.11 158.42,211.42 137.23,211.42 116.04,211.42 94.84,211.42 Z"
         style="fill:#800f08;stroke:none"
         id="tongue"
         inkscape:connector-curvature="0"
         sodipodi:nodetypes="cscc" />
      <g
         transform="matrix(1,0,0,1,0.5,0.08)"
         morph="fix-children"
         id="upper-teeth">
        <rect
           width="10.355772"
           x="96.361504"
           ry="1.3245033"
           transform="matrix(0.99122501,0.13218537,0,1,0,0)"
           inkscape:transform-center-y="1.3353219"
           rx="1.3362287"
           y="158.0847"
           height="15.123333"
           id="tooth-02"
           style="fill:#ffffff;fill-opacity:1;stroke:#000000;stroke-width:1.00441658;stroke-opacity:1" />
        <rect
           rx="1.3247935"
           y="169.91676"
           height="15.123333"
           transform="matrix(0.99978101,0.02092668,0,1,0,0)"
           id="tooth-03"
           width="10.267149"
           x="107.20548"
           ry="1.3245033"
           style="fill:#ffffff;fill-opacity:1;stroke:#000000;stroke-width:1.00010955;stroke-opacity:1" />
        <rect
           width="10.2649"
           x="119.18203"
           ry="1.3245033"
           rx="1.3245033"
           y="172.32661"
           height="15.123333"
           id="tooth-04"
           style="fill:#ffffff;fill-opacity:1;stroke:#000000;stroke-opacity:1" />
        <rect
           rx="1.3247935"
           y="175.00304"
           height="15.123333"
           transform="matrix(0.99978101,-0.02092669,0,1,0,0)"
           id="tooth-05"
           width="10.267148"
           x="131.21086"
           ry="1.3245033"
           style="fill:#ffffff;fill-opacity:1;stroke:#000000;stroke-width:1.00010955;stroke-opacity:1" />
        <rect
           width="10.393703"
           x="144.89429"
           ry="1.3245033"
           transform="matrix(0.9876076,-0.15694341,0,1,0,0)"
           rx="1.3411231"
           y="194.77757"
           height="15.123333"
           id="tooth-06"
           style="fill:#ffffff;fill-opacity:1;stroke:#000000;stroke-width:1.00625432;stroke-opacity:1" />
      </g>
      <g
         transform="matrix(1,0,0,1,0.5,24)"
         id="lower-teeth"
         morph="fix-children">
        <rect
           style="fill:#ffffff;fill-opacity:1;stroke:#000000;stroke-opacity:1"
           ry="1.3245033"
           x="95.314705"
           width="10.2649"
           id="tooth-09"
           height="15.123333"
           y="172.09084"
           rx="1.3245033" />
        <rect
           style="fill:#ffffff;fill-opacity:1;stroke:#000000;stroke-opacity:1"
           id="tooth-10"
           height="15.123333"
           y="172.09084"
           rx="1.3245033"
           ry="1.3245033"
           x="107.31471"
           width="10.2649" />
        <rect
           style="fill:#ffffff;fill-opacity:1;stroke:#000000;stroke-opacity:1"
           ry="1.3245033"
           x="119.31471"
           width="10.2649"
           id="tooth-11"
           height="15.123333"
           y="172.09084"
           rx="1.3245033" />
        <rect
           style="fill:#ffffff;fill-opacity:1;stroke:#000000;stroke-opacity:1"
           id="tooth-12"
           height="15.123333"
           y="172.09084"
           rx="1.3245033"
           ry="1.3245033"
           x="131.31459"
           width="10.2649" />
        <rect
           style="fill:#ffffff;fill-opacity:1;stroke:#000000;stroke-opacity:1"
           ry="1.3245033"
           x="143.31459"
           width="10.2649"
           id="tooth-13"
           height="15.123333"
           y="172.09084"
           rx="1.3245033" />
      </g>
    </g>
    <path
       style="fill:none;stroke:#000000;stroke-width:1px"
       d="M 166.73,177.33 C 172.19,192.81 144.29,197.36 125,197.36 105.71,197.36 77.81,192.81 83.27,177.33 84.82,172.89 102.91,184.71 125,184.71 147.09,184.71 165.19,172.89 166.73,177.33 Z"
       id="mouth-outline"
       sodipodi:nodetypes="ccccc"
       inkscape:connector-curvature="0" />
  </g>
  <g
     id="wrinkles">
    <path
       d="M 86.38,66.19 C 92.05,62.33 99.21,62.65 98.76,69.16"
       style="fill:none;stroke:#000000;stroke-width:0.5"
       id="wrinkle-left-brow"
       inkscape:connector-curvature="0"
       sodipodi:nodetypes="cc" />
    <path
       d="M 56.51,173.31 C 60.51,177.04 71.61,170.28 68.89,165.23"
       style="fill:none;stroke:#000000;stroke-width:0.5"
       id="wrinkle-left-cheek"
       inkscape:connector-curvature="0"
       sodipodi:nodetypes="cc" />
    <use
       transform="matrix(-1,0,0,1,250,0)"
       morph="fixed"
       height="250"
       y="0"
       x="0"
       xlink:href="#wrinkle-left-brow"
       id="wrinkle-right-brow"
       width="250" />
    <use
       transform="matrix(-1,0,0,1,250,0)"
       morph="fixed"
       height="250"
       y="0"
       x="0"
       xlink:href="#wrinkle-left-cheek"
       id="wrinkle-right-cheek"
       width="250" />
  </g>
</svg>
